<svg xmlns="http://www.w3.org/2000/svg" xmlns:xlink="http://www.w3.org/1999/xlink" width="55.437" height="67.431" viewBox="0 0 55.437 67.431">
  <defs>
    <clipPath id="clip-path">
      <rect id="Rectángulo_3598" data-name="Rectángulo 3598" width="55.437" height="67.431" fill="none"/>
    </clipPath>
  </defs>
  <g id="Grupo_2540" data-name="Grupo 2540" transform="translate(0 0)">
    <g id="Grupo_2545" data-name="Grupo 2545" transform="translate(0 0)" clip-path="url(#clip-path)">
      <path id="Trazado_5549" data-name="Trazado 5549" d="M54.314,32.358l-.209-.264a3.879,3.879,0,0,0-1.836-1.3L53.6,29.741a3.853,3.853,0,0,0,.671-5.4l-.209-.275a3.847,3.847,0,0,0-5.389-.671l-1.166.9a4.052,4.052,0,0,0-.836-2.089l-.2-.253a3.838,3.838,0,0,0-.8-2.144l-.209-.275a3.847,3.847,0,0,0-5.389-.671l-1.166.9a4.052,4.052,0,0,0-.836-2.089l-.209-.275a3.834,3.834,0,0,0-2.551-1.452,3.89,3.89,0,0,0-2.848.781l-6.642,5.18a3.726,3.726,0,0,0-2.507.8,116.779,116.779,0,0,0-9.424,7.478l-.066-.693,5.169-4.443.088-.088a5.989,5.989,0,0,0,1.771-4.575,2.429,2.429,0,0,0-.528-1.276l-.209-.264a3.84,3.84,0,0,0-5.4-.671S3.31,26.277,2.562,28.949a21.22,21.22,0,0,0-.3,5.059,21.818,21.818,0,0,1-.088,3.178A20.978,20.978,0,0,1,.286,44L0,44.62,12.943,61.225l.451.055a3.74,3.74,0,0,0,.495.033,3.642,3.642,0,0,0,2.265-.748c.3-.187.594-.374.9-.561l4.487,5.751.451.055a3.74,3.74,0,0,0,.495.033,3.642,3.642,0,0,0,2.265-.748c.847-.55,1.738-1.067,2.639-1.54a32.455,32.455,0,0,1,4.157-1.793c.517-.187.99-.363,1.463-.561,2.342-.979,19.674-14.648,19.674-14.648a3.853,3.853,0,0,0,.66-5.389l-.209-.275a3.879,3.879,0,0,0-1.847-1.287l2.353-1.847a3.86,3.86,0,0,0,.671-5.4M41.415,20.6a1.642,1.642,0,0,1,1.782-.143,3.918,3.918,0,0,0-2.133.8L23.325,35.085l-.825-.22-.011-.088a1.1,1.1,0,0,0,.88-.209Zm-7.6-2.133a1.656,1.656,0,0,1,2.309.286l.22.275a2,2,0,0,1,.143,2.133l-7.247,5.674a4.958,4.958,0,0,0,.209-1.913,2.429,2.429,0,0,0-.528-1.276l-.209-.264a3.435,3.435,0,0,0-.517-.539Zm-18.937,40.3a1.531,1.531,0,0,1-.8.33L2.562,44.312a23.492,23.492,0,0,0,1.8-6.9,22.966,22.966,0,0,0,.1-3.464,20.255,20.255,0,0,1,.209-4.41c.594-2.155,11.393-9.633,11.393-9.633a1.656,1.656,0,0,1,2.309.286l.209.275c.055.077.077.11.077.11a3.929,3.929,0,0,1-1.155,2.848l-5.246,4.509a3.591,3.591,0,0,0-.649,1.617l.165,1.749a1.024,1.024,0,0,0,.341.693,4.449,4.449,0,0,0-.957,1.5,21.13,21.13,0,0,0-.3,5.048,21.818,21.818,0,0,1-.088,3.178,20.978,20.978,0,0,1-1.891,6.818L8.6,49.15l7.093,9.106c-.264.165-.539.341-.814.517M52.907,34.92a1.641,1.641,0,0,1-.616,1.1L37.7,47.446a1.1,1.1,0,0,0-.187,1.54l.319.418a1.062,1.062,0,0,0,.726.407,1.075,1.075,0,0,0,.814-.22L49.1,41.958a1.573,1.573,0,0,1,1.2-.33,1.641,1.641,0,0,1,1.1.616l.209.275a1.633,1.633,0,0,1,.33,1.21,1.563,1.563,0,0,1-.6,1.089S34.256,58.3,32.166,59.169c-.44.187-.891.352-1.375.528a34.517,34.517,0,0,0-4.421,1.913c-.968.506-1.913,1.056-2.892,1.694a1.531,1.531,0,0,1-.8.33L19,58.916l-1.375-1.76-6.466-8.314a23.492,23.492,0,0,0,1.8-6.9,22.966,22.966,0,0,0,.1-3.464,20.154,20.154,0,0,1,.209-4.4,4.286,4.286,0,0,1,.968-1.386c2.793-2.969,10.425-8.259,10.425-8.259a1.676,1.676,0,0,1,1.716-.187h.011a1.7,1.7,0,0,1,.583.473l.209.275c.055.077.077.11.077.11a3.929,3.929,0,0,1-1.155,2.848l-5.246,4.509a3.591,3.591,0,0,0-.649,1.617l.165,1.749a1.081,1.081,0,0,0,.8.957l2.1.561a1.071,1.071,0,0,0,.957-.187L42.415,23a1.625,1.625,0,0,1,1.221-.33,1.59,1.59,0,0,1,.506.154,1.494,1.494,0,0,1,.583.462l.22.275a1.965,1.965,0,0,1,.374,1.364,1.517,1.517,0,0,1-.231.77l-.968.759L30.407,37.2a1.1,1.1,0,0,0,0,1.727l.209.165a1.106,1.106,0,0,0,1.353.011L44.219,29.62l1.771-1.375,4.025-3.112a1.666,1.666,0,0,1,2.309.286l.209.275a1.586,1.586,0,0,1,.33,1.21,1.641,1.641,0,0,1-.627,1.111l-9.062,7.258-3.849,3.079-5.4,4.322a1.1,1.1,0,0,0-.418.8,1.119,1.119,0,0,0,.33.836l.176.187a1.106,1.106,0,0,0,1.452.077l7.8-6.1v-.011l1.782-1.386,5.015-3.926a1.668,1.668,0,0,1,2.309.3l.209.264a1.633,1.633,0,0,1,.33,1.21" transform="translate(0 1.587)" fill="#ff5d00"/>
      <path id="Trazado_5550" data-name="Trazado 5550" d="M28.741,15.2a1.648,1.648,0,0,1-1.633-1.435L25.669,2.8a1.649,1.649,0,1,1,3.271-.429l1.437,10.961a1.649,1.649,0,0,1-1.421,1.85,1.6,1.6,0,0,1-.216.014" transform="translate(2.558 0.093)" fill="#ff5d00"/>
      <path id="Trazado_5551" data-name="Trazado 5551" d="M36.433,13.93A1.652,1.652,0,0,1,34.825,11.9L37.311,1.273a1.65,1.65,0,0,1,3.212.752l-2.486,10.63a1.65,1.65,0,0,1-1.6,1.275" transform="translate(3.468 0)" fill="#ff5d00"/>
      <path id="Trazado_5552" data-name="Trazado 5552" d="M42.492,17.867a1.65,1.65,0,0,1-1.284-2.682L48.429,6.2A1.65,1.65,0,0,1,51,8.264L43.779,17.25a1.645,1.645,0,0,1-1.287.617" transform="translate(4.072 0.556)" fill="#ff5d00"/>
    </g>
  </g>
</svg>
