<svg id="Grupo_2535" data-name="Grupo 2535" xmlns="http://www.w3.org/2000/svg" xmlns:xlink="http://www.w3.org/1999/xlink" width="50.173" height="82.754" viewBox="0 0 50.173 82.754">
  <defs>
    <clipPath id="clip-path">
      <rect id="Rectángulo_3593" data-name="Rectángulo 3593" width="50.173" height="82.754" fill="none"/>
    </clipPath>
  </defs>
  <g id="Grupo_2535-2" data-name="Grupo 2535" transform="translate(0 0)" clip-path="url(#clip-path)">
    <path id="Trazado_5517" data-name="Trazado 5517" d="M22.153,79.029a1.1,1.1,0,0,1-.99-.62,35.726,35.726,0,0,1-2.648-7.469c-.948-4.074-.881-7.176-.67-12.755.629-16.5,1.159-18.35,3.353-19.735a7.618,7.618,0,0,1,8.188.208c2.108,1.606,2.221,3.882,2.6,11.426.107,2.121.233,4.685.431,7.8.074,1.163.14,2.119.183,2.743a1.1,1.1,0,1,1-2.194.153c-.044-.627-.11-1.587-.184-2.757-.2-3.125-.327-5.7-.432-7.828-.354-7.119-.486-8.836-1.733-9.786a5.437,5.437,0,0,0-5.681-.1c-1.2.755-1.744,2.592-2.328,17.959-.211,5.535-.274,8.364.613,12.171a33.546,33.546,0,0,0,2.484,7.009,1.1,1.1,0,0,1-.989,1.579" transform="translate(1.766 3.725)" fill="#ff5d00"/>
    <path id="Trazado_5518" data-name="Trazado 5518" d="M36.767,79.177a1.1,1.1,0,0,1-1-1.553,141.9,141.9,0,0,0,7-19.111c1.732-6.035,2.018-8.635,1.272-11.585a17.151,17.151,0,0,0-6.217-9.092,1.1,1.1,0,1,1,1.37-1.721,19.331,19.331,0,0,1,6.98,10.276c.941,3.724.332,7.072-1.293,12.73a144,144,0,0,1-7.111,19.409,1.1,1.1,0,0,1-1,.648" transform="translate(3.556 3.577)" fill="#ff5d00"/>
    <path id="Trazado_5519" data-name="Trazado 5519" d="M41.716,65.139a1.085,1.085,0,0,1-.52-.132,1.1,1.1,0,0,1-.446-1.489c1.257-2.337,3.306-6.95,2.891-11.6-.236-2.656-1.194-4.639-2.017-5.226a6.948,6.948,0,0,0-.961-.553l-.008,0a6.189,6.189,0,0,0-2.1-.547,1.1,1.1,0,0,1,.177-2.192,8.406,8.406,0,0,1,2.843.739l0,.01a7.812,7.812,0,0,1,1.33.754c1.508,1.076,2.658,3.752,2.932,6.823.466,5.218-1.772,10.281-3.146,12.835a1.1,1.1,0,0,1-.969.578" transform="translate(3.743 4.327)" fill="#ff5d00"/>
    <path id="Trazado_5520" data-name="Trazado 5520" d="M25.182,48.743a4.348,4.348,0,0,1-1.822-.421,5.432,5.432,0,0,1-2.693-4.343,3.134,3.134,0,0,1,.763-2.791,1.572,1.572,0,0,1,1.348-.211,10.67,10.67,0,0,0,1.563.114h.02a9.973,9.973,0,0,0,2.149-.221,1.809,1.809,0,0,1,1.531.137c.9.626,1.093,2.144.974,3.356-.151,1.524-.882,3.4-2.488,4.105a3.321,3.321,0,0,1-1.345.274m-2.963-6.72a.151.151,0,0,0-.11.03,2.254,2.254,0,0,0-.349,1.812,4.4,4.4,0,0,0,2.085,3.471,2.813,2.813,0,0,0,2.239.126,3.842,3.842,0,0,0,1.835-3.206,2.882,2.882,0,0,0-.508-2.346c-.1-.067-.186-.062-.688.037a12.338,12.338,0,0,1-2.385.243,11.85,11.85,0,0,1-1.71-.124,3.615,3.615,0,0,0-.409-.044" transform="translate(2.057 4.065)" fill="#ff5d00"/>
    <path id="Trazado_5521" data-name="Trazado 5521" d="M40.551,57.552H32.9v-2.2h7.648a.413.413,0,0,0,.412-.412V2.612a.413.413,0,0,0-.412-.412H2.612a.413.413,0,0,0-.412.412V54.94a.405.405,0,0,0,.121.29.44.44,0,0,0,.291.122H20.565v2.2H2.612a2.644,2.644,0,0,1-1.847-.765A2.6,2.6,0,0,1,0,54.94V2.612A2.614,2.614,0,0,1,2.612,0h37.94a2.614,2.614,0,0,1,2.612,2.612V54.94a2.614,2.614,0,0,1-2.612,2.612" transform="translate(0 0)" fill="#ff5d00"/>
    <path id="Trazado_5522" data-name="Trazado 5522" d="M34.324,11.922H6.954a1.1,1.1,0,0,1,0-2.2h27.37a1.1,1.1,0,0,1,0,2.2" transform="translate(0.584 0.969)" fill="#ff5d00"/>
    <path id="Trazado_5523" data-name="Trazado 5523" d="M34.324,18.255H6.954a1.1,1.1,0,0,1,0-2.2h27.37a1.1,1.1,0,0,1,0,2.2" transform="translate(0.584 1.601)" fill="#ff5d00"/>
    <path id="Trazado_5524" data-name="Trazado 5524" d="M34.324,24.589H6.954a1.1,1.1,0,0,1,0-2.2h27.37a1.1,1.1,0,0,1,0,2.2" transform="translate(0.584 2.232)" fill="#ff5d00"/>
    <path id="Trazado_5525" data-name="Trazado 5525" d="M23.326,32.075H6.954a1.1,1.1,0,0,1,0-2.2H23.326a1.1,1.1,0,0,1,0,2.2" transform="translate(0.584 2.979)" fill="#ff5d00"/>
  </g>
</svg>
