<svg xmlns="http://www.w3.org/2000/svg" xmlns:xlink="http://www.w3.org/1999/xlink" width="38.879" height="82.749" viewBox="0 0 38.879 82.749">
  <defs>
    <clipPath id="clip-path">
      <rect id="Rectángulo_3594" data-name="Rectángulo 3594" width="38.879" height="82.749" fill="none"/>
    </clipPath>
  </defs>
  <g id="Grupo_2536" data-name="Grupo 2536" transform="translate(0 0)">
    <g id="Grupo_2537" data-name="Grupo 2537" transform="translate(0 0)" clip-path="url(#clip-path)">
      <path id="Trazado_5526" data-name="Trazado 5526" d="M36.552,40.425a11.681,11.681,0,0,1-2.727,2.54,23.073,23.073,0,0,0-2.463,2.023,21.5,21.5,0,0,0-3.97,5.224,1.1,1.1,0,0,0-2.111.429v.627H7.927v-.627a1.1,1.1,0,1,0-2.2,0v.506a1.184,1.184,0,0,1-.264-.2,3.848,3.848,0,0,1-1.133-2.716c-.077-.913-.22-1.924-.4-2.925A32.232,32.232,0,0,0,2.791,40.92c-.165-.517-.319-1.012-.451-1.5A20.76,20.76,0,0,1,1.8,31.572a1.1,1.1,0,0,0,2.177.22,19.015,19.015,0,0,0,.473,7.049c.132.462.275.924.429,1.408a33.392,33.392,0,0,1,1.21,4.663c.2,1.067.341,2.155.44,3.233a1.748,1.748,0,0,0,.242.924H25.511a23.4,23.4,0,0,1,4.333-5.663,24.008,24.008,0,0,1,2.672-2.21,9.341,9.341,0,0,0,2.265-2.089c1.342-1.815,1.913-4.322,1.683-7.456V23.424a1.647,1.647,0,0,0-1.65-1.65h-.341a.665.665,0,0,0-.143.011A3.926,3.926,0,0,0,32.8,24.446l-.341,6.906a1.07,1.07,0,0,1-.385.77,1.038,1.038,0,0,1-.484.726l-1.474.957a1.183,1.183,0,0,1-.594.165,1.068,1.068,0,0,1-.671-.22l-1.727-1.309a1.083,1.083,0,0,1-.429-.869V8.523a1.662,1.662,0,0,0-1.65-1.65h-.341a1.993,1.993,0,0,0-1.782,1.2l-.055,18.651a1.1,1.1,0,0,1-1.353,1.067l-.264-.066a1.094,1.094,0,0,1-.836-1.067L20.342,3.849a1.669,1.669,0,0,0-1.65-1.65h-.341A1.667,1.667,0,0,0,16.7,3.838l-.308,23.479a1.05,1.05,0,0,1-.385.814,1.065,1.065,0,0,1-.858.264l-.253-.033a1.1,1.1,0,0,1-.957-1.089l.044-18.541a1.664,1.664,0,0,0-1.639-1.639H12a1.667,1.667,0,0,0-1.639,1.65L10.3,27.273a1.1,1.1,0,0,1-1.1,1.1H8.685a1.108,1.108,0,0,1-1.1-1.111L7.641,14.9a1.652,1.652,0,0,0-1.65-1.639H5.65A1.645,1.645,0,0,0,4,14.9V31.55a1.1,1.1,0,0,0-2.188-.11c0,.044-.011.077-.011.121V14.9A3.851,3.851,0,0,1,5.65,11.063h.341a3.848,3.848,0,0,1,2.155.671l.011-3A3.849,3.849,0,0,1,12,4.894h.352a3.817,3.817,0,0,1,2.133.649L14.5,3.827A3.841,3.841,0,0,1,18.352,0h.341a3.844,3.844,0,0,1,3.849,3.838V5.312a4.135,4.135,0,0,1,2.166-.638h.341A3.853,3.853,0,0,1,28.9,8.523v22.5l.671.517.715-.462.33-6.807a.535.535,0,0,1,.011-.132,6.03,6.03,0,0,1,2.518-4.2,2.412,2.412,0,0,1,1.331-.363h.341a3.853,3.853,0,0,1,3.849,3.849v8.149c.253,3.64-.462,6.62-2.111,8.853" transform="translate(0.165 0.001)" fill="#ff5d00"/>
      <path id="Trazado_5527" data-name="Trazado 5527" d="M3.987,28.788a.581.581,0,0,1-.011.143c0,.033-.011.066-.011.1a1.1,1.1,0,0,1-2.177-.22V28.8c0-.044.011-.077.011-.121a1.1,1.1,0,0,1,2.188.11" transform="translate(0.178 2.763)" fill="#ff5d00"/>
      <path id="Trazado_5528" data-name="Trazado 5528" d="M3.987,28.788a.581.581,0,0,1-.011.143c0,.033-.011.066-.011.1a1.1,1.1,0,0,1-2.177-.22V28.8c0-.044.011-.077.011-.121a1.1,1.1,0,0,1,2.188.11" transform="translate(0.178 2.763)" fill="#ff5d00"/>
      <path id="Trazado_5529" data-name="Trazado 5529" d="M7.557,46.15v.627H5.875a1.154,1.154,0,0,1-.517-.121V46.15a1.1,1.1,0,1,1,2.2,0" transform="translate(0.534 4.492)" fill="#ff5d00"/>
      <path id="Trazado_5530" data-name="Trazado 5530" d="M25.249,45.721s.011,0,0,.011c-.088.154-.165.3-.242.451a1.1,1.1,0,0,1-.979.594h-.891V46.15a1.1,1.1,0,0,1,2.111-.429" transform="translate(2.307 4.492)" fill="#ff5d00"/>
      <path id="Trazado_5531" data-name="Trazado 5531" d="M33.721,70.024H1.1a1.1,1.1,0,0,1-1.1-1.1V52.755a1.1,1.1,0,0,1,1.1-1.1H33.721a1.1,1.1,0,0,1,1.1,1.1v16.17a1.1,1.1,0,0,1-1.1,1.1M2.2,67.825H32.621V53.854H2.2Z" transform="translate(0 5.151)" fill="#ff5d00"/>
      <path id="Trazado_5532" data-name="Trazado 5532" d="M4.3,76.063a1.1,1.1,0,0,1-1.1-1.1v-6.8a1.1,1.1,0,0,1,2.2,0v6.8a1.1,1.1,0,0,1-1.1,1.1" transform="translate(0.319 6.687)" fill="#ff5d00"/>
      <path id="Trazado_5533" data-name="Trazado 5533" d="M28.833,76.063a1.1,1.1,0,0,1-1.1-1.1v-6.8a1.1,1.1,0,0,1,2.2,0v6.8a1.1,1.1,0,0,1-1.1,1.1" transform="translate(2.765 6.687)" fill="#ff5d00"/>
      <path id="Trazado_5534" data-name="Trazado 5534" d="M7.557,46.15v6.8a1.1,1.1,0,1,1-2.2,0v-6.8a1.1,1.1,0,1,1,2.2,0" transform="translate(0.534 4.492)" fill="#ff5d00"/>
      <path id="Trazado_5535" data-name="Trazado 5535" d="M25.337,46.15v6.8a1.1,1.1,0,1,1-2.2,0v-6.8a1.1,1.1,0,0,1,2.111-.429s.011,0,0,.011a1.013,1.013,0,0,1,.088.418" transform="translate(2.307 4.492)" fill="#ff5d00"/>
      <path id="Trazado_5536" data-name="Trazado 5536" d="M18.01,53.582a1.1,1.1,0,0,1-1.1-1.1V48.247a1.1,1.1,0,1,1,2.2,0v4.236a1.1,1.1,0,0,1-1.1,1.1" transform="translate(1.686 4.701)" fill="#ff5d00"/>
      <path id="Trazado_5537" data-name="Trazado 5537" d="M7.859,60.435A2.84,2.84,0,1,1,10.7,57.6a2.843,2.843,0,0,1-2.841,2.839m0-3.481A.641.641,0,1,0,8.5,57.6a.641.641,0,0,0-.641-.641" transform="translate(0.5 5.46)" fill="#ff5d00"/>
    </g>
  </g>
</svg>
