<svg xmlns="http://www.w3.org/2000/svg" xmlns:xlink="http://www.w3.org/1999/xlink" width="69.279" height="68.695" viewBox="0 0 69.279 68.695">
  <defs>
    <clipPath id="clip-path">
      <rect id="Rectángulo_3596" data-name="Rectángulo 3596" width="69.279" height="68.695" fill="none"/>
    </clipPath>
  </defs>
  <g id="Grupo_2538" data-name="Grupo 2538" transform="translate(0 0)">
    <g id="Grupo_2541" data-name="Grupo 2541" transform="translate(0 0)" clip-path="url(#clip-path)">
      <path id="Trazado_5542" data-name="Trazado 5542" d="M55.719,46.6a1.077,1.077,0,0,1-.206-.02,1.1,1.1,0,0,1-.732-.5L30.715,6.87a1.1,1.1,0,0,1,.452-1.562L41.733.112a1.1,1.1,0,0,1,1.422.411L66.07,37.853a1.1,1.1,0,0,1-.276,1.454l-9.416,7.071a1.1,1.1,0,0,1-.66.22M33.221,6.749l22.8,37.145,7.648-5.744L41.8,2.528Z" transform="translate(3.046 0)" fill="#ff5d00"/>
      <path id="Trazado_5543" data-name="Trazado 5543" d="M6.661,53.969a1.124,1.124,0,0,1-.256-.03,1.1,1.1,0,0,1-.681-.495L.163,44.385a1.1,1.1,0,0,1,.362-1.512L8.781,37.8a1.1,1.1,0,0,1,1.512.362l5.561,9.059a1.1,1.1,0,0,1-.361,1.512L7.236,53.807a1.1,1.1,0,0,1-.575.163m-4.049-9.8,4.411,7.185L13.4,47.439l-4.41-7.185Z" transform="translate(0 3.753)" fill="#ff5d00"/>
      <path id="Trazado_5544" data-name="Trazado 5544" d="M30.754,64.336a1.1,1.1,0,0,1-.938-.525L20.231,48.2a1.1,1.1,0,0,1,.629-1.631l9.644-2.81a1.1,1.1,0,0,1,1.243.481l8.2,13.356a1.1,1.1,0,0,1-.362,1.512l-8.257,5.069a1.1,1.1,0,0,1-.574.162m-7.9-16.061,8.257,13.449L37.5,57.806,30.312,46.1Z" transform="translate(2.001 4.358)" fill="#ff5d00"/>
      <path id="Trazado_5545" data-name="Trazado 5545" d="M35.546,55.178a1.124,1.124,0,0,1-.256-.03,1.1,1.1,0,0,1-.682-.495L29,45.516a1.1,1.1,0,0,1,.631-1.632l4.82-1.4a1.1,1.1,0,0,1,1.244.481l4.913,8a1.1,1.1,0,0,1-.362,1.512l-4.124,2.532a1.1,1.1,0,0,1-.575.163m-3.918-9.583,4.28,6.971,2.249-1.381-3.9-6.352Z" transform="translate(2.875 4.232)" fill="#ff5d00"/>
      <path id="Trazado_5546" data-name="Trazado 5546" d="M15.762,54.277a1.1,1.1,0,0,1-.937-.525L6.449,40.106a1.1,1.1,0,0,1,.134-1.327L35.311,8.1a1.1,1.1,0,0,1,1.74.176l20.01,32.6a1.1,1.1,0,0,1-.63,1.631L16.069,54.233a1.089,1.089,0,0,1-.307.044m-7-14.606,7.5,12.217L54.433,40.793l-18.5-30.138Z" transform="translate(0.627 0.773)" fill="#ff5d00"/>
      <path id="Trazado_5547" data-name="Trazado 5547" d="M55.587,25.562c-.034,0-.069,0-.1-.005a1.1,1.1,0,0,1-.834-.519L47.4,13.228a1.1,1.1,0,0,1,.644-1.634,8.347,8.347,0,0,1,9.3,3.661h0A8.348,8.348,0,0,1,56.4,25.2a1.1,1.1,0,0,1-.813.36M50.146,13.5l5.508,8.975A6.106,6.106,0,0,0,50.146,13.5" transform="translate(4.71 1.126)" fill="#ff5d00"/>
    </g>
  </g>
</svg>
