<svg xmlns="http://www.w3.org/2000/svg" xmlns:xlink="http://www.w3.org/1999/xlink" width="87.141" height="59.355" viewBox="0 0 87.141 59.355">
  <defs>
    <clipPath id="clip-path">
      <rect id="Rectángulo_3597" data-name="Rectángulo 3597" width="87.141" height="59.355" fill="none"/>
    </clipPath>
  </defs>
  <g id="Grupo_2539" data-name="Grupo 2539" transform="translate(0 0)">
    <g id="Grupo_2543" data-name="Grupo 2543" transform="translate(0 0)" clip-path="url(#clip-path)">
      <path id="Trazado_5548" data-name="Trazado 5548" d="M11.426,29.89A1.508,1.508,0,0,1,9.37,30.6L1.976,26.86A1.361,1.361,0,1,0,.747,29.289l7.394,3.746a4.235,4.235,0,0,0,4.762-.641,11.663,11.663,0,0,1,2.11,3.6A12.169,12.169,0,0,0,17.2,39.619l-.342.411a4.579,4.579,0,0,0,.481,6.389,4.531,4.531,0,0,0,4.466.924,4.573,4.573,0,0,0,1.378,2.211,4.455,4.455,0,0,0,3.51,1.107,5.069,5.069,0,0,0,6.331,4.823A4.559,4.559,0,0,0,34.493,58.2a4.607,4.607,0,0,0,6.495-.39L42.33,56.3a7.982,7.982,0,0,0,1.105.085A7.812,7.812,0,0,0,49.1,53.944a8.88,8.88,0,0,0,2.573.386,8.979,8.979,0,0,0,6.918-3.278,5.976,5.976,0,0,0,6.738-3.429l.7-1.538h.012a5.385,5.385,0,0,0,4.814-2.964c1.427-2.856-.251-7.758,2.955-9.939a3.972,3.972,0,0,0,4.954,1.163l7.624-3.785a1.362,1.362,0,0,0-1.211-2.439l-7.633,3.79a1.262,1.262,0,0,1-1.695-.578c-9.965-19.874-9.521-18.9-9.6-19.188a1.262,1.262,0,0,1,.671-1.418L80.328,3.851a1.361,1.361,0,1,0-1.242-2.423L65.682,8.3a3.958,3.958,0,0,0-2.14,3c-2.283.207-3.886-.754-5.7-1.846-2.682-1.611-5.72-3.433-10.874-1.143-.177.079-.341.146-.516.223a27.771,27.771,0,0,0-7.224-2.722c-4.255-.9-7.049.938-10.583,3.011a7.654,7.654,0,0,1-5.469.893,4.2,4.2,0,0,0-2.552-3.728L6.908.109a1.362,1.362,0,0,0-1.073,2.5l13.71,5.882a1.479,1.479,0,0,1,.852,1.793C20.3,10.593,20.993,9.038,11.426,29.89Zm7.721,14.492a1.869,1.869,0,0,1-.2-2.607l1.618-1.94a1.877,1.877,0,1,1,2.883,2.405l-1.618,1.94a1.873,1.873,0,0,1-2.688.2m5.843,3.134a1.878,1.878,0,0,1-.159-2.652l3.155-3.555A1.879,1.879,0,1,1,30.8,43.8l-3.154,3.555A1.882,1.882,0,0,1,24.99,47.516Zm5.2,4.8a2.374,2.374,0,0,1-.158-3.373l5.9-6.408a2.381,2.381,0,0,1,3.341-.151c.063.136,1.916,1.752.242,3.506-.131.136-6.145,6.438-6.018,6.3A2.365,2.365,0,0,1,30.191,52.318ZM36.3,56.162a1.878,1.878,0,0,1-.159-2.654c.125-.137,3.839-4.169,3.6-3.913a1.855,1.855,0,0,1,2.2.2,1.878,1.878,0,0,1,.158,2.652L38.951,56a1.881,1.881,0,0,1-2.651.159m8.963-4.4a1.34,1.34,0,0,0,.324.32l.876.575a5.1,5.1,0,0,1-1.772.83,4.543,4.543,0,0,0,.571-1.725M56.436,11.791c2.038,1.226,4.332,2.58,7.645,2.181l8.436,16.8c-1.618.971-2.716,2.737-3.292,5.276a5.738,5.738,0,0,0-.763-.506L52.588,26.97l-4.346-4.306a8.03,8.03,0,0,0-8.408-3.031l-2.905.733A4.853,4.853,0,0,1,31,16.633c-.108-.7-.251-.713.008-.87,4.75-.308,10.171-1.885,17.064-4.962C51.927,9.084,53.917,10.279,56.436,11.791Zm-26.387-.633c2.888-1.764,5.359-3.365,8.6-2.68a24.108,24.108,0,0,1,4.438,1.458,41.392,41.392,0,0,1-12.245,3.109A2.887,2.887,0,0,0,28.2,16.533l.135.65a7.576,7.576,0,0,0,9.252,5.826l2.905-.732A5.306,5.306,0,0,1,46.1,24.349c.1.144,4.522,4.546,4.876,4.8.372.275,9.173,4.982,16.188,8.784a2.99,2.99,0,0,1,1.255,3.96,2.65,2.65,0,0,1-3.628,1.141l-8.753-4.8a1.362,1.362,0,0,0-1.31,2.389l8.635,4.735L62.849,46.5a3.314,3.314,0,0,1-4.242,1.734h0l-.007,0a3.793,3.793,0,0,1-.432-.2l-8.646-4.86a1.361,1.361,0,0,0-1.335,2.373L55.951,49.9a6.228,6.228,0,0,1-6.738,1.189A15.849,15.849,0,0,1,47.08,49.8a1.361,1.361,0,0,0-1.885.391c-.007.01-.007.021-.012.03a4.556,4.556,0,0,0-3.005-3.382,5.053,5.053,0,0,0,.714-2.777,5.3,5.3,0,0,0-1.795-3.7,5.111,5.111,0,0,0-7.168.329l-.243.264a4.548,4.548,0,0,0-7.452-1.72,4.57,4.57,0,0,0-7.209-1.686,9.247,9.247,0,0,1-1.464-2.517A14.067,14.067,0,0,0,14.37,30l8.1-17.649A10.232,10.232,0,0,0,30.048,11.158Z" transform="translate(0 0)" fill="#ff5d00"/>
    </g>
  </g>
</svg>
