<?xml version="1.0" encoding="utf-8"?>
<!-- Generator: Adobe Illustrator 27.7.0, SVG Export Plug-In . SVG Version: 6.00 Build 0)  -->
<svg version="1.1" id="Layer_5" xmlns="http://www.w3.org/2000/svg" xmlns:xlink="http://www.w3.org/1999/xlink" x="0px" y="0px"
	 viewBox="0 0 512 512" style="enable-background:new 0 0 512 512;" xml:space="preserve">
<style type="text/css">
	.st0{fill:#FFFFFF;}
</style>
<path class="st0" d="M256,136c-13.3,0-24-10.7-24-24c0-4.4,3.6-8,8-8s8,3.6,8,8s3.6,8,8,8s8-3.6,8-8s-3.6-8-8-8
	c-13.3,0-24-10.7-24-24s10.7-24,24-24c13.3,0,24,10.7,24,24c0,4.4-3.6,8-8,8s-8-3.6-8-8s-3.6-8-8-8s-8,3.6-8,8s3.6,8,8,8
	c13.3,0,24,10.7,24,24S269.3,136,256,136z"/>
<path class="st0" d="M256,152c-4.4,0-8-3.6-8-8v-16c0-4.4,3.6-8,8-8s8,3.6,8,8v16C264,148.4,260.4,152,256,152z"/>
<path class="st0" d="M256,72c-4.4,0-8-3.6-8-8V48c0-4.4,3.6-8,8-8s8,3.6,8,8v16C264,68.4,260.4,72,256,72z"/>
<path class="st0" d="M256,192c-53,0-96-43-96-96s43-96,96-96s96,43,96,96C351.9,149,309,191.9,256,192z M256,16
	c-44.2,0-80,35.8-80,80s35.8,80,80,80s80-35.8,80-80C336,51.8,300.2,16,256,16z"/>
<path class="st0" d="M96,456c-13.3,0-24-10.7-24-24c0-4.4,3.6-8,8-8s8,3.6,8,8s3.6,8,8,8s8-3.6,8-8s-3.6-8-8-8
	c-13.3,0-24-10.7-24-24s10.7-24,24-24s24,10.7,24,24c0,4.4-3.6,8-8,8s-8-3.6-8-8s-3.6-8-8-8s-8,3.6-8,8s3.6,8,8,8
	c13.3,0,24,10.7,24,24S109.3,456,96,456z"/>
<path class="st0" d="M96,472c-4.4,0-8-3.6-8-8v-16c0-4.4,3.6-8,8-8s8,3.6,8,8v16C104,468.4,100.4,472,96,472z"/>
<path class="st0" d="M96,392c-4.4,0-8-3.6-8-8v-16c0-4.4,3.6-8,8-8s8,3.6,8,8v16C104,388.4,100.4,392,96,392z"/>
<path class="st0" d="M96,512c-53,0-96-43-96-96s43-96,96-96s96,43,96,96C191.9,469,149,511.9,96,512z M96,336c-44.2,0-80,35.8-80,80
	s35.8,80,80,80s80-35.8,80-80C176,371.8,140.2,336,96,336z"/>
<path class="st0" d="M416,456c-13.3,0-24-10.7-24-24c0-4.4,3.6-8,8-8s8,3.6,8,8s3.6,8,8,8s8-3.6,8-8s-3.6-8-8-8
	c-13.3,0-24-10.7-24-24s10.7-24,24-24s24,10.7,24,24c0,4.4-3.6,8-8,8s-8-3.6-8-8s-3.6-8-8-8s-8,3.6-8,8s3.6,8,8,8
	c13.3,0,24,10.7,24,24S429.3,456,416,456z"/>
<path class="st0" d="M416,472c-4.4,0-8-3.6-8-8v-16c0-4.4,3.6-8,8-8s8,3.6,8,8v16C424,468.4,420.4,472,416,472z"/>
<path class="st0" d="M416,392c-4.4,0-8-3.6-8-8v-16c0-4.4,3.6-8,8-8s8,3.6,8,8v16C424,388.4,420.4,392,416,392z"/>
<path class="st0" d="M416,512c-53,0-96-43-96-96s43-96,96-96s96,43,96,96C511.9,469,469,511.9,416,512z M416,336
	c-44.2,0-80,35.8-80,80s35.8,80,80,80s80-35.8,80-80C496,371.8,460.2,336,416,336z"/>
<path class="st0" d="M288,424h-64c-4.4,0-8-3.6-8-8c0-2.1,0.8-4.2,2.3-5.7l24-24c3.2-3.1,8.2-3,11.3,0.2c3,3.1,3,8,0,11.1L243.3,408
	H288c4.4,0,8,3.6,8,8S292.4,424,288,424z"/>
<path class="st0" d="M248,448c-2.1,0-4.2-0.8-5.7-2.3l-24-24c-3.1-3.2-3-8.2,0.2-11.3c3.1-3,8-3,11.1,0l24,24
	c3.1,3.1,3.1,8.2,0,11.3C252.2,447.2,250.1,448,248,448L248,448z"/>
<path class="st0" d="M184,256c-4.4,0-8-3.6-8-8v-24h-24c-4.4,0-8-3.6-8-8s3.6-8,8-8h32c4.4,0,8,3.6,8,8v32
	C192,252.4,188.4,256,184,256z"/>
<path class="st0" d="M120,288c-4.4,0-8-3.6-8-8c0-2.1,0.8-4.2,2.3-5.7l60-60c3.2-3.1,8.2-3,11.3,0.2c3,3.1,3,8,0,11.1l-60,60
	C124.2,287.2,122.1,288,120,288z"/>
<path class="st0" d="M392,288h-32c-4.4,0-8-3.6-8-8s3.6-8,8-8h24v-24c0-4.4,3.6-8,8-8s8,3.6,8,8v32C400,284.4,396.4,288,392,288z"/>
<path class="st0" d="M388,284c-2.1,0-4.2-0.8-5.7-2.3l-60-60c-3.1-3.2-3-8.2,0.2-11.3c3.1-3,8-3,11.1,0l60,60
	c3.1,3.1,3.1,8.2,0,11.3C392.2,283.2,390.1,284,388,284z"/>
</svg>
