<?xml version="1.0" encoding="utf-8"?>
<!-- Generator: Adobe Illustrator 27.7.0, SVG Export Plug-In . SVG Version: 6.00 Build 0)  -->
<svg version="1.1" id="Capa_1" xmlns="http://www.w3.org/2000/svg" xmlns:xlink="http://www.w3.org/1999/xlink" x="0px" y="0px"
	 viewBox="0 0 421.4 408.9" style="enable-background:new 0 0 421.4 408.9;" xml:space="preserve">
<style type="text/css">
	.st0{fill:#FFFFFF;}
</style>
<g>
	<path class="st0" d="M402.7,210.8c-6,11.7-15.4,20.7-23.7,30.7c-11.6,14-23.4,27.9-35.1,41.8c-4.8,5.7-9.3,11.7-14.4,17.3
		c-9.6,10.4-21.6,16.8-35.4,19.5c-4.7,0.9-9.5,1.3-14.2,1.3c-32.2,0.1-64.5,0.3-96.7-0.1c-10.8-0.1-17.9,5.5-24.4,12.9
		c-0.8,0.9-0.9,2.9-0.5,4.2c1.9,7.6-0.4,14.1-5.4,19.4c-8.1,8.6-16.7,16.8-25.1,25.1c-3.9,3.8-7.9,7.5-11.9,11.2
		c-3.4,3.2-7.3,3.2-10.7-0.2c-16-15.9-32-31.9-47.9-47.9c-11.9-12-23.8-24.1-35.6-36.3c-1.1-1.2-1.9-2.6-2.9-4c0-1.2,0-2.5,0-3.7
		c2.5-2.8,4.8-5.8,7.4-8.5c9.9-10,20-19.9,29.9-30c4.8-4.9,10.7-7.1,17.4-7.2c2.6,0,4-0.6,5.5-3.1c12.4-20.7,30.4-34,53.7-40.6
		c12.3-3.5,24.8-4.3,37.3-3.3c8.5,0.7,16.7,3.5,25.1,5.4c2.9,0.6,5.8,1.4,8.7,1.4c25.2,0.1,50.5,0.1,75.7,0c10.5,0,19.7,2.9,27.1,11
		c14-14.3,27.8-28.6,41.9-42.7c3.8-3.8,7.8-7.9,12.5-10.1c15.3-7.1,34-0.2,40.4,15.9c0.3,0.8,1,1.6,1.5,2.3
		C402.7,198.8,402.7,204.8,402.7,210.8z M149.1,323.3c10.1-13.7,23.9-17.4,40-17.1c31.1,0.5,62.2,0.4,93.3,0
		c15.2-0.2,28-6.1,37.8-18c11.4-13.8,23-27.5,34.6-41.3c9.7-11.5,19.5-22.8,29.1-34.3c4.2-5,5.8-10.5,3.2-17.2
		c-3.2-8.3-16.8-12.2-24-4.8c-6,6.2-11.9,12.4-17.9,18.5c-10.4,10.7-20.9,21.4-31.3,32.1c-0.8,0.8-1.1,2.3-1.3,3.6
		c-0.5,3.6-0.3,7.4-1.3,10.9c-3.9,12.4-16.3,20.8-29.2,20.6c-20.1-0.2-40.2-0.1-60.4-0.1c-4.7,0-7.5-2.8-7.5-7.4
		c0-4.9,3-7.6,8.9-7.6c15.9-0.1,31.7,0,47.6,0c4.1,0,8.3,0.1,12.4,0c10.3-0.4,16.9-10,13.7-19.8c-2.2-6.6-7.7-10.2-16-10.2
		c-26.9,0-53.7,0.1-80.6-0.1c-3.1,0-6.2-1.1-9.2-1.8c-7.9-1.7-15.7-4.4-23.7-5c-8.2-0.6-16.5,0.3-24.7,1.4c-8.2,1.1-16,4.1-23.4,8.3
		c-12.8,7.1-22.3,17.3-29.5,29.9c0.2,0.3,0.3,0.5,0.5,0.7C109.8,284.1,129.3,303.5,149.1,323.3z M144.9,342.6
		c-1.5-2.5-2.4-4.8-4.1-6.4c-20.5-20.6-41.1-41.2-61.8-61.6c-4.7-4.6-8.8-3.9-12.8,0c-9,9-18,18-27.1,26.9c-2.1,2-1.8,3.2,0.1,5.1
		c21.7,21.8,43.4,43.7,65.1,65.6c6.3,6.3,6.2,6.2,12.7-0.1c7.7-7.6,15.6-15,23.3-22.6C142.1,347.6,143.2,345.1,144.9,342.6z"/>
	<path class="st0" d="M252,12.4c5,1.2,10,2.3,14.9,3.8c10.8,3.4,20.7,8.6,29.4,16c8.4,7.1,15,15.4,19.9,25.1
		c4.9,9.5,7.6,19.4,8.7,30.1c1.4,12.6-0.5,24.5-4.7,36.2c-5,13.8-13.3,25.4-24.8,34.7c-9.8,7.9-20.5,13.7-32.7,16.6
		c-23.8,5.5-45.9,2-66.3-11.8c-17.8-12-28.7-28.8-34.1-49.3c-1.6-6.1-2.6-12.6-2.4-18.8c0.6-18.7,6-35.8,17.8-50.8
		c11.7-14.8,26.8-24.3,44.7-29.4c3.3-0.9,6.7-1.6,10-2.4C239,12.4,245.5,12.4,252,12.4z M242.4,162.1c37.4,0.8,67.1-30.2,68-65.4
		c0.9-35.7-28.2-72.7-75.7-68.6c-26.9,2.3-63.4,28.4-59.3,74.4C178.2,132,206.1,163.3,242.4,162.1z"/>
	<path class="st0" d="M190.6,260.1c3.9,0.1,7.6,3.8,7.5,7.4c-0.2,4-4.1,7.7-7.9,7.6c-4.1-0.1-7.2-3.6-7.2-8
		C183,263,186.3,260,190.6,260.1z"/>
	<path class="st0" d="M234,58.4c0-2.8,0-5.4,0-8c0-4.2,1.8-6.9,4.6-7.3c6-0.7,9.1,1.1,10.3,5.8c0.1,0.4,0.2,0.8,0.1,1.1
		c-1.9,7.4,2.8,10.4,8.3,13.4c4.7,2.6,6.1,7.8,3.6,11.6c-2.2,3.4-7,4.4-10.4,2.1c-2.9-2-5.3-4.5-9.5-4.2c-3.5,0.2-6,1.4-6.9,4.7
		c-1,3.9,0.9,7.9,4.3,9.1c1.8,0.7,3.8,1.1,5.7,1.2c8.9,0.2,17.5,8.6,19.1,17c1.4,7,0.3,13.6-4.5,19.1c-2,2.2-4.5,4.3-7.1,5.6
		c-2.1,1.1-2.7,2.2-2.7,4.4c0.1,2.4-0.2,4.9-0.7,7.2c-0.8,4.2-3.8,6.2-8.1,5.8c-3.4-0.3-6.3-3.3-6-7.1c0.5-5.8-0.3-10-6.7-12.2
		c-2.7-0.9-4.9-3.7-6.9-6c-3.2-3.6-2.9-8.6,0.2-11.2c2.4-2,8.2-1.3,10.8,1.3c3,3,6,5.8,10.8,5.2c3-0.4,6.6-3.7,6.7-6.9
		c0-3-1.3-5.8-4.4-6.9c-2-0.7-4.3-1-6.4-1.2c-9.5-0.8-18.7-10.9-19.1-20.5C218.4,70.4,223.7,63,234,58.4z"/>
</g>
</svg>
