<?xml version="1.0" encoding="utf-8"?>
<!-- Generator: Adobe Illustrator 27.7.0, SVG Export Plug-In . SVG Version: 6.00 Build 0)  -->
<svg version="1.1" id="Layer_1" xmlns="http://www.w3.org/2000/svg" xmlns:xlink="http://www.w3.org/1999/xlink" x="0px" y="0px"
	 viewBox="0 0 512 512" style="enable-background:new 0 0 512 512;" xml:space="preserve">
<style type="text/css">
	.st0{fill:#FFFFFF;}
</style>
<path class="st0" d="M455.6,389.2l-14.4-2.8l-5.1-12.2l8.2-12.2c1.9-2.8,1.5-6.5-0.9-8.8l-21.2-21.2c-2.4-2.4-6.1-2.7-8.8-0.9
	l-12.2,8.2l-12.2-5.1l-2.8-14.4c-0.6-3.3-3.5-5.6-6.9-5.6h-9.7c-17.7-24.5-41.1-44.9-67.8-58.9c-15.8-8.3-32.9-14.4-50.4-18.1
	c28.5-14.7,48-44.4,48-78.6c0-5.8-0.6-11.7-1.7-17.3c1.4-0.8,2.9-1.6,4.3-2.5c2.1-1.3,3.4-3.5,3.4-6V76l28.6-7.7v28.1
	c-8.5,2.9-14.6,11-14.6,20.4c0,5.7,2.2,10.9,5.9,14.8l-1.4,3c-2.4,5.1-3.5,10.1-3.5,15.8v22.9c0,8.2,6.7,15,15,15h12.3
	c8.2,0,15-6.7,15-15v-22.9c0-5.6-1.1-10.6-3.5-15.8l-1.7-3.7c3.2-3.8,5.2-8.7,5.2-14.1c0-9.5-6.1-17.5-14.6-20.4V64.6l1.7-0.5
	c5.7-1.5,9.5-6.5,9.5-12.3s-3.8-10.8-9.5-12.3L221.9,5.2c-6.1-1.6-11.8-1.6-17.8,0L76.2,39.5h0c-5.7,1.5-9.5,6.5-9.5,12.3
	s3.8,10.8,9.5,12.3L120.5,76v56.6c0,2.5,1.3,4.7,3.4,6c0.3,0.2,0.6,0.3,0.9,0.5c-1.4,6.3-2.1,12.8-2.1,19.3
	c0,34.2,19.5,63.9,48,78.6c-17.6,3.7-34.6,9.8-50.4,18.1c-26.9,14.1-50.5,34.7-68.2,59.5c-0.8,1.2-1.3,2.6-1.3,4.1v92.3
	c0,3.9,3.1,7,7,7h209.6v8c0,3.3,2.4,6.2,5.6,6.9l14.4,2.8l5.1,12.2l-8.2,12.2c-1.9,2.8-1.5,6.5,0.9,8.8l21.2,21.2
	c2.4,2.4,6.1,2.7,8.8,0.9l12.2-8.2l12.2,5.1l2.8,14.4c0.6,3.3,3.5,5.6,6.9,5.6h30c3.3,0,6.2-2.4,6.9-5.6l2.8-14.4l12.2-5.1l12.2,8.2
	c2.8,1.9,6.5,1.5,8.8-0.9l21.2-21.2c2.4-2.4,2.7-6.1,0.9-8.8l-8.2-12.2l5.1-12.2l14.4-2.8c3.3-0.6,5.6-3.5,5.6-6.9v-30
	C461.3,392.7,458.9,389.9,455.6,389.2L455.6,389.2z M348.6,173.4c0,0.5-0.4,1-1,1h-12.3c-0.5,0-1-0.4-1-1v-22.9
	c0-3.6,0.7-6.6,2.2-9.9l1.1-2.3c1.1,0.2,2.2,0.3,3.3,0.3c1.5,0,2.9-0.1,4.3-0.4l1.2,2.5c1.5,3.3,2.2,6.2,2.2,9.9L348.6,173.4
	L348.6,173.4z M341,124.5c-4.2,0-7.6-3.4-7.6-7.6s3.4-7.6,7.6-7.6s7.6,3.4,7.6,7.6S345.2,124.5,341,124.5z M277.5,259.6l-33.8,54.6
	l-22.9-22.7l37.2-38.4C264.7,254.9,271.2,257,277.5,259.6L277.5,259.6z M134.5,128.6v-10.5c23.7,11.9,50.5,18.1,78.4,18.1
	s54.8-6.2,78.4-18.1v10.5c-23.2,13.1-50.2,20-78.4,20S157.7,141.7,134.5,128.6L134.5,128.6z M207.6,18.7c3.7-1,6.9-1,10.6,0
	l123.4,33.1l-1.3,0.4L217.6,41.1c-3.8-0.3-7.3,2.5-7.6,6.3c-0.3,3.9,2.5,7.3,6.3,7.6l84.7,7.7l-82.9,22.2c-3.7,1-6.9,1-10.6,0
	L84.2,51.8L207.6,18.7z M204,98.4c3,0.8,6,1.2,8.9,1.2s5.9-0.4,8.9-1.2l69.5-18.6v22.5c-23.2,13.1-50.2,20-78.4,20
	s-55.2-6.9-78.4-20V79.8L204,98.4z M136.7,158.5c0-4.2,0.4-8.4,1-12.4c22.9,10.9,48.6,16.6,75.2,16.6c25.3,0,49.7-5.1,71.7-14.9
	c0.5,3.6,0.8,7.2,0.8,10.8c0,41-33.3,74.3-74.3,74.4c0,0,0,0,0,0s0,0,0,0C170,232.8,136.7,199.5,136.7,158.5L136.7,158.5z
	 M211,246.8L211,246.8c10.5,0,20.8,0.9,31,2.7l-31,32l-31-32C190.2,247.8,200.5,246.8,211,246.8L211,246.8z M201.2,291.5l-22.9,22.7
	l-33.8-54.6c6.4-2.5,12.9-4.7,19.5-6.5L201.2,291.5z M64.7,404.1v-83c17.6-24,40.7-43,66.8-55.8L171,329c1.1,1.8,3,3,5.1,3.3
	c0.3,0,0.6,0,0.8,0c1.8,0,3.6-0.7,4.9-2l29.2-28.8l29.2,28.8c1.3,1.3,3.1,2,4.9,2c0.3,0,0.6,0,0.8,0c2.1-0.3,4-1.5,5.1-3.3
	l39.4-63.7c23.6,11.5,44.7,28.1,61.5,48.8h-2.6c-3.3,0-6.2,2.4-6.9,5.6l-2.8,14.4l-12.2,5.1l-12.2-8.2c-2.8-1.9-6.5-1.5-8.8,0.9
	l-21.2,21.2c-2.4,2.4-2.7,6.1-0.9,8.8l8.2,12.2l-5.1,12.2l-14.4,2.8c-3.3,0.6-5.6,3.5-5.6,6.9v8L64.7,404.1L64.7,404.1z
	 M447.3,420.3l-12.4,2.5c-2.3,0.5-4.2,2-5.1,4.2l-7.9,19.1c-0.9,2.2-0.7,4.6,0.7,6.6l7.1,10.5l-13,13l-10.5-7.1
	c-1.9-1.3-4.4-1.5-6.6-0.7l-19.1,7.9c-2.2,0.9-3.7,2.8-4.2,5.1l-2.5,12.4h-18.4l-2.5-12.4c-0.5-2.3-2-4.2-4.2-5.1l-19.1-7.9
	c-2.2-0.9-4.6-0.7-6.6,0.7l-10.5,7.1l-13-13l7.1-10.5c1.3-1.9,1.5-4.4,0.7-6.6l-7.9-19.1c-0.9-2.2-2.8-3.7-5.1-4.2l-12.4-2.5v-18.4
	l12.4-2.5c2.3-0.5,4.2-2,5.1-4.2l7.9-19.1c0.9-2.2,0.7-4.6-0.7-6.6l-7.1-10.5l13-13l10.5,7.1c1.9,1.3,4.4,1.5,6.6,0.7l19.1-7.9
	c2.2-0.9,3.7-2.8,4.2-5.1l2.5-12.4h18.4l2.5,12.4c0.5,2.3,2,4.2,4.2,5.1l19.1,7.9c2.2,0.9,4.6,0.7,6.6-0.7l10.5-7.1l13,13l-7.1,10.5
	c-1.3,1.9-1.5,4.4-0.7,6.6l7.9,19.1c0.9,2.2,2.8,3.7,5.1,4.2l12.4,2.5V420.3z M364.3,357.9c-29.3,0-53.1,23.8-53.1,53.1
	s23.8,53.1,53.1,53.1s53.1-23.8,53.1-53.1S393.6,357.9,364.3,357.9z M364.3,450.2c-21.6,0-39.1-17.6-39.1-39.1s17.6-39.1,39.1-39.1
	s39.1,17.6,39.1,39.1S385.9,450.2,364.3,450.2z"/>
</svg>
