<?xml version="1.0" encoding="utf-8"?>
<!-- Generator: Adobe Illustrator 27.7.0, SVG Export Plug-In . SVG Version: 6.00 Build 0)  -->
<svg version="1.1" id="Capa_1" xmlns="http://www.w3.org/2000/svg" xmlns:xlink="http://www.w3.org/1999/xlink" x="0px" y="0px"
	 viewBox="0 0 512 512" style="enable-background:new 0 0 512 512;" xml:space="preserve">
<style type="text/css">
	.st0{fill:#FFFFFF;}
</style>
<g>
	<path class="st0" d="M64,400H40c-4.4,0-8,3.6-8,8s3.6,8,8,8h24c4.4,0,8-3.6,8-8S68.4,400,64,400z"/>
	<path class="st0" d="M96,400h-8c-4.4,0-8,3.6-8,8s3.6,8,8,8h8c4.4,0,8-3.6,8-8S100.4,400,96,400z"/>
	<path class="st0" d="M472,168h-16v-64c0-17.7-14.3-32-32-32H88c-17.7,0-32,14.3-32,32v144H40c-17.7,0-32,14.3-32,32v128
		c0,17.7,14.3,32,32,32h80c17.7,0,32-14.3,32-32v-24h69.8l-4,16H192c-4.4,0-8,3.6-8,8v24c0,4.4,3.6,8,8,8h280c17.7,0,32-14.3,32-32
		V200C504,182.3,489.7,168,472,168z M136,408c0,8.8-7.2,16-16,16H40c-8.8,0-16-7.2-16-16V280c0-8.8,7.2-16,16-16h10.2l6.2,18.5
		c1.1,3.3,4.1,5.5,7.6,5.5h32c3.4,0,6.5-2.2,7.6-5.5l6.2-18.5H120c8.8,0,16,7.2,16,16V408z M67.1,264h25.8l-2.7,8H69.8L67.1,264z
		 M152,368v-24h144v24H152z M296,384v16h-1.8l-4-16H296z M277.8,400h-43.5l4-16h35.5L277.8,400z M200,424v-8h97
		c0.7,2.8,1.8,5.5,3.3,8H200z M296,200v128H152v-48c0-17.7-14.3-32-32-32H72V104c0-8.8,7.2-16,16-16h336c8.8,0,16,7.2,16,16v64H328
		C310.3,168,296,182.3,296,200z M488,408c0,8.8-7.2,16-16,16H328c-8.8,0-16-7.2-16-16V200c0-8.8,7.2-16,16-16h144
		c8.8,0,16,7.2,16,16V408z"/>
	<path class="st0" d="M472,192H328c-4.4,0-8,3.6-8,8v184c0,4.4,3.6,8,8,8h144c4.4,0,8-3.6,8-8V200C480,195.6,476.4,192,472,192z
		 M464,376H336V208h128V376z"/>
	<circle class="st0" cx="392" cy="408" r="8"/>
</g>
</svg>
