<?xml version="1.0" encoding="utf-8"?>
<!-- Generator: Adobe Illustrator 27.7.0, SVG Export Plug-In . SVG Version: 6.00 Build 0)  -->
<svg version="1.1" id="Capa_1" xmlns="http://www.w3.org/2000/svg" xmlns:xlink="http://www.w3.org/1999/xlink" x="0px" y="0px"
	 viewBox="0 0 496 496" style="enable-background:new 0 0 496 496;" xml:space="preserve">
<style type="text/css">
	.st0{fill:#FFFFFF;}
</style>
<g>
	<g>
		<path class="st0" d="M476,151.5c-9.8-14.7-26.3-23.5-44-23.5h-4.5L352,253.8V184v-8C352,79,273,0,176,0S0,79,0,176v8v192
			c0,13.2,10.8,24,24,24h126.6c-17.6,9.2-36.4,16.2-55.7,20.5C81.4,423.5,72,435.2,72,449c0,6.3,2.1,12.5,5.8,17.5
			c13.9,18.5,36,29.6,59.1,29.6h133.4c18.8,0,36.2-9.3,46.6-24.9c12.1-18.2,22.1-37.8,29.8-58.2l4.9-13.1
			c5.1-13.5,11.2-26.6,18.4-39.1l16.5-29c1.3-2.2,3.7-3.6,6.2-3.6c4,0,7.2,3.2,7.2,7.2V496h48v-70.5c0-21.7,2.2-43.5,6.4-64.8
			l0.5-2.7c5.8-28.8,15.3-56.7,28.4-82.9c8.2-16.5,12.6-34.9,12.6-53.3v-4C496,194.1,489.1,171.2,476,151.5z M176,16
			c88.2,0,160,71.8,160,160h-16c0-79.4-64.6-144-144-144S32,96.6,32,176H16C16,87.8,87.8,16,176,16z M304,176H48
			c0-70.6,57.4-128,128-128S304,105.4,304,176z M16,192h320v57.8l-112,28V240h-96v37.8l-112-28V192z M144,272v-16h64v16H144z
			 M208,288v24c0,4.4-3.6,8-8,8h-48c-4.4,0-8-3.6-8-8v-24H208z M24,384c-4.4,0-8-3.6-8-8V266.2l112,28V312c0,13.2,10.8,24,24,24h48
			c13.2,0,24-10.8,24-24v-17.8l112-28V280h0.3l-11.9,19.9c-12.4,20.7-27.3,39.8-44.4,56.8c-12.4,12.4-29,19.3-46.5,19.3
			c-10.2,0-20.3-2.4-29.4-6.9l-5.1-2.6l-8.4,7c-4.7,3.9-9.5,7.5-14.5,11V384H24z M395.4,312.3c-0.8-0.1-1.7-0.3-2.5-0.3
			c-8.3,0-16,4.5-20.1,11.7l-16.5,29c-7.6,13.2-14.1,27.2-19.5,41.5l-4.9,13.1c-2.3,6.1-4.9,12.2-7.7,18.1l-0.1-0.2
			c-19.5,12.2-40.8,21-63.3,26c-14.3,3.2-29,4.8-43.7,4.8h-73v16h73c15.8,0,31.7-1.7,47.1-5.2c16.2-3.6,31.8-9.2,46.8-16.3
			c-2.4,4-4.8,7.9-7.3,11.7c-7.4,11.2-19.9,17.8-33.3,17.8H137c-10.3,0-20.4-2.9-29.1-8H128v-16H90.2c-1.4-2.1-2.2-4.5-2.2-7
			c0-6.2,4.2-11.5,10.3-12.8c37.5-8.3,72.9-25.8,102.5-50.4l0.5-0.4c10.2,4.3,21.2,6.6,32.2,6.6c21.9,0,42.4-8.5,57.9-24
			c18-18,33.7-38.1,46.8-59.9l98.3-163.9c10.6,1.3,20.2,7.1,26.3,16.2c8,12.1,13.3,25.5,15.8,39.6
			C447.4,234.7,419.4,272.4,395.4,312.3z M469.1,267.9c-13.8,27.5-23.8,56.8-29.8,86.9l-0.5,2.7c-4.5,22.3-6.7,45.2-6.7,67.9V480
			h-16V335.2c0-6.1-2.4-11.6-6.3-15.7c20.6-34.1,44.3-66.5,70.2-96.7C479.8,238.3,476.1,253.9,469.1,267.9z"/>
	</g>
</g>
</svg>
