<?xml version="1.0" encoding="utf-8"?>
<!-- Generator: Adobe Illustrator 27.7.0, SVG Export Plug-In . SVG Version: 6.00 Build 0)  -->
<svg version="1.1" id="svg312" xmlns:svg="http://www.w3.org/2000/svg"
	 xmlns="http://www.w3.org/2000/svg" xmlns:xlink="http://www.w3.org/1999/xlink" x="0px" y="0px" viewBox="0 0 682.7 682.7"
	 style="enable-background:new 0 0 682.7 682.7;" xml:space="preserve">
<style type="text/css">
	.st0{fill:#FFFFFF;}
</style>
<g id="g318" transform="matrix(1.3333333,0,0,-1.3333333,0,682.66667)">
	<g id="g320">
		<g>
			<g id="g322">
				<g id="g328" transform="translate(173,61)">
					<g id="path330">
						<path class="st0" d="M36-7.5c-4.1,0-7.5,3.4-7.5,7.5c0,5.8-4.7,10.5-10.5,10.5S7.5,5.8,7.5,0c0-4.1-3.4-7.5-7.5-7.5
							S-7.5-4.1-7.5,0c0,14.1,11.4,25.5,25.5,25.5S43.5,14.1,43.5,0C43.5-4.1,40.1-7.5,36-7.5z"/>
					</g>
				</g>
				<g id="g332" transform="translate(289,42)">
					<g id="path334">
						<path class="st0" d="M36-7.5c-4.1,0-7.5,3.4-7.5,7.5c0,5.8-4.7,10.5-10.5,10.5S7.5,5.8,7.5,0c0-4.1-3.4-7.5-7.5-7.5
							S-7.5-4.1-7.5,0c0,14.1,11.4,25.5,25.5,25.5S43.5,14.1,43.5,0C43.5-4.1,40.1-7.5,36-7.5z"/>
					</g>
				</g>
				<g id="g336" transform="translate(417,36)">
					<path id="path338_00000032646371086069721090000002367078677897995937_" class="st0" d="M0,0c0-3.3-2.7-6-6-6s-6,2.7-6,6
						s2.7,6,6,6S0,3.3,0,0"/>
				</g>
				<g id="g340" transform="translate(125,52)">
					<path id="path342_00000047024661772495985470000004114900377997210015_" class="st0" d="M0,0c0-3.3-2.7-6-6-6s-6,2.7-6,6
						s2.7,6,6,6S0,3.3,0,0"/>
				</g>
				<g id="g344" transform="translate(256,112)">
					<g id="path346">
						<path class="st0" d="M0-7.5c-4.1,0-7.5,3.4-7.5,7.5v156c0,4.1,3.4,7.5,7.5,7.5s7.5-3.4,7.5-7.5V0C7.5-4.1,4.1-7.5,0-7.5z"/>
					</g>
				</g>
				<g id="g348" transform="translate(256,171)">
					<g id="path350">
						<path class="st0" d="M0-7.5c-2.5,0-5,1.3-6.4,3.6C-6.7-3.5-20.6,19.1-44.6,28c-3.9,1.4-5.9,5.8-4.4,9.6
							c1.4,3.9,5.7,5.9,9.6,4.4C-10.2,31.2,5.8,5,6.4,3.9c2.1-3.6,1-8.2-2.6-10.3C2.6-7.2,1.3-7.5,0-7.5z"/>
					</g>
				</g>
				<g id="g352" transform="translate(214,206.0145)">
					<g id="path354">
						<path class="st0" d="M-39.7-27.3c-6.7,0-13.4,1.4-19.8,4.3c-34,15.3-51.9,68.4-52.6,70.7c-1.3,3.8,0.7,7.9,4.5,9.4
							c2.2,0.8,54.7,20.5,88,3.7C-5,53.3,4.3,40.1,7.3,22.5C9.4,9.8,7.5-0.9,7.4-1.4C7.1-2.7,6.6-3.9,5.7-4.8
							c-0.3-0.3-7.4-8.6-18.6-15C-21.8-24.8-30.8-27.3-39.7-27.3z M-95.2,45.3c5.7-14,20.3-45,41.9-54.7c22-9.9,41.1,7.3,46.3,12.7
							c0.9,7.4,2.3,33.1-19.3,43.9C-47.4,57.9-80.8,49.8-95.2,45.3z M0,0L0,0L0,0z M0,0L0,0L0,0z"/>
					</g>
				</g>
				<g id="g356" transform="translate(256,156)">
					<g id="path358">
						<path class="st0" d="M0-7.5c-1.3,0-2.6,0.3-3.9,1.1C-7.4-4.3-8.6,0.3-6.4,3.9C-5.8,5,10.2,31.2,39.4,42
							c3.9,1.4,8.2-0.5,9.6-4.4c1.4-3.9-0.5-8.2-4.4-9.6C20.5,19,6.6-3.6,6.4-3.9C5-6.2,2.5-7.5,0-7.5z"/>
					</g>
				</g>
				<g id="g360" transform="translate(298,191.0145)">
					<g id="path362">
						<path class="st0" d="M39.7-27.3c-8.9,0-17.9,2.5-26.8,7.5C1.6-13.5-5.4-5.2-5.7-4.8c-0.8,1-1.4,2.2-1.6,3.5
							C-7.5-0.9-9.4,9.8-7.3,22.5c3,17.6,12.3,30.8,26.9,38.2c33.3,16.8,85.8-2.8,88-3.7c3.7-1.4,5.7-5.5,4.5-9.4
							C111.4,45.4,93.5-7.7,59.5-23C53.1-25.9,46.4-27.3,39.7-27.3z M7.1,3.4C12.3-2,31.3-19.2,53.3-9.3
							c21.5,9.7,36.2,40.7,41.9,54.7c-14.5,4.4-47.8,12.6-68.9,2C4.8,36.4,6.2,10.8,7.1,3.4z"/>
					</g>
				</g>
				<g id="g364" transform="translate(256,268)">
					<g id="path366">
						<path class="st0" d="M0-7.5c-0.6,0-1.2,0.1-1.7,0.2c-0.4,0.1-11,2.7-21.5,9.9c-14.6,10-22.3,24-22.3,40.4
							c0,36.4,38.4,78.3,40,80.1c1.4,1.5,3.4,2.4,5.5,2.4s4.1-0.9,5.5-2.4c1.6-1.8,40-43.7,40-80.1c0-16.5-7.7-30.4-22.3-40.4
							C12.7-4.6,2.2-7.2,1.7-7.3C1.2-7.4,0.6-7.5,0-7.5z M0,106.4C-10.1,94-30.5,66.1-30.5,43C-30.5,19.1-6.7,9.9,0,7.8
							C6.8,9.9,30.5,18.9,30.5,43C30.5,66.1,10.1,94,0,106.4z"/>
					</g>
				</g>
				<g id="g368" transform="translate(298,191.0145)">
					<g id="path370">
						<path class="st0" d="M0-7.5c-2.8,0-5.5,1.6-6.8,4.3C-8.6,0.5-7,5-3.2,6.8l46,22c3.7,1.8,8.2,0.2,10-3.5
							c1.8-3.7,0.2-8.2-3.5-10l-46-22C2.2-7.3,1.1-7.5,0-7.5z"/>
					</g>
				</g>
				<g id="g372" transform="translate(214,206.0145)">
					<g id="path374">
						<path class="st0" d="M0-7.5c-1.1,0-2.2,0.2-3.2,0.7l-46,22c-3.7,1.8-5.3,6.3-3.5,10c1.8,3.7,6.3,5.3,10,3.5l46-22
							C7,5,8.6,0.5,6.8-3.2C5.5-5.9,2.8-7.5,0-7.5z"/>
					</g>
				</g>
				<g id="g376" transform="translate(256,268)">
					<g id="path378">
						<path class="st0" d="M0-7.5c-4.1,0-7.5,3.4-7.5,7.5v40c0,4.1,3.4,7.5,7.5,7.5s7.5-3.4,7.5-7.5V0C7.5-4.1,4.1-7.5,0-7.5z"/>
					</g>
				</g>
				<g id="g380" transform="translate(418,10)">
					<g id="path382">
						<path class="st0" d="M84-7.5h-492c-4.1,0-7.5,3.4-7.5,7.5c0,27.3,22.2,49.5,49.5,49.5c3.8,0,7.6-0.4,11.3-1.3
							c15.3,21,39.5,33.3,65.7,33.3c2,0,4-0.1,6-0.2c7,22.5,27.9,38.2,52,38.2c16.2,0,31.2-7,41.4-19.1c7.9,5.8,17.6,9.1,27.6,9.1
							c10,0,19.6-3.2,27.6-9.1c10.3,12.1,25.2,19.1,41.4,19.1c24.2,0,45-15.7,52-38.2c2,0.1,4,0.2,6,0.2c26.2,0,50.4-12.3,65.7-33.3
							c3.7,0.9,7.5,1.3,11.3,1.3c27.3,0,49.5-22.2,49.5-49.5C91.5-4.1,88.1-7.5,84-7.5z M-399.7,7.5H75.7c-3.4,15.4-17.2,27-33.7,27
							c-4.1,0-8.1-0.7-11.8-2.1c-3.3-1.2-7,0.1-8.9,3C9,54.9-12.1,66.5-35,66.5c-3.5,0-7-0.3-10.5-0.8c-4-0.6-7.9,2.1-8.6,6.1
							c-3.3,19-19.6,32.7-38.9,32.7c-13.9,0-26.6-7.1-33.8-19.1c-1.2-2-3.3-3.3-5.7-3.6c-2.3-0.2-4.7,0.7-6.3,2.4
							c-6,6.5-14.4,10.2-23.2,10.2c-8.8,0-17.3-3.7-23.2-10.2c-1.6-1.7-3.9-2.6-6.3-2.4c-2.4,0.2-4.5,1.6-5.7,3.6
							c-7.2,11.9-19.9,19.1-33.8,19.1c-19.3,0-35.6-13.8-38.9-32.7c-0.7-4-4.5-6.8-8.6-6.1c-3.5,0.6-7,0.8-10.5,0.8
							c-22.9,0-44-11.6-56.2-31c-1.9-3-5.6-4.2-8.9-3c-3.8,1.4-7.8,2.1-11.8,2.1C-382.4,34.5-396.2,22.9-399.7,7.5z"/>
					</g>
				</g>
				<g id="g384" transform="translate(396.9674,82.9433)">
					<g id="path386">
						<path class="st0" d="M0-7.5c-3.8,0-7,2.9-7.4,6.7C-7.9,3.3-4.9,7-0.8,7.5C3.1,7.9,7,9.2,10.3,11.3l40.4,25.2
							C65.1,45.5,75,60.2,78,76.9l14.7,83.2l-6.2,1.1c-4.1,0.7-6.8,4.6-6.1,8.7c0.7,4.1,4.6,6.8,8.7,6.1l13.6-2.4
							c2-0.3,3.7-1.5,4.8-3.1c1.1-1.6,1.6-3.6,1.2-5.6l-16-90.6C89,53.4,76.6,35,58.7,23.8L18.3-1.4C13-4.7,7-6.8,0.8-7.5
							C0.5-7.5,0.3-7.5,0-7.5z"/>
					</g>
				</g>
				<g id="g388" transform="translate(302.8215,186.1703)">
					<g id="path390">
						<path class="st0" d="M25.6-71.8c-2.2,0-4.4,1-5.9,2.9l-11.8,15C-4.3-38.3-9.8-18.8-7.4,0.9C-7,5-3.2,7.9,0.9,7.4
							C5,7,7.9,3.2,7.4-0.9C5.6-16.6,10-32.1,19.7-44.6l11.8-15c2.6-3.3,2-8-1.3-10.5C28.8-71.3,27.2-71.8,25.6-71.8z"/>
					</g>
				</g>
				<g id="g392" transform="translate(450.7672,257.4676)">
					<g id="path394">
						<path class="st0" d="M-138.7-26c-0.4,0-0.9,0-1.3,0.1c-4.1,0.7-6.8,4.6-6.1,8.7l7.4,41.7c0.3,2,1.5,3.7,3.1,4.8
							c1.6,1.1,3.6,1.6,5.6,1.2L1.3,7.4c4.1-0.7,6.8-4.6,6.1-8.7C6.7-5.4,2.8-8.1-1.3-7.4l-124,21.9l-6-34.3
							C-132-23.5-135.2-26-138.7-26z"/>
					</g>
				</g>
				<g id="g396" transform="translate(419.6302,326.1596)">
					<g id="path398">
						<path class="st0" d="M11.6-72.7c-0.4,0-0.9,0-1.3,0.1l-44.7,7.9c-4.1,0.7-6.8,4.6-6.1,8.7l10.8,61.3c0.7,4.1,4.6,6.8,8.7,6.1
							L1.3,7.4c0,0,0,0,0,0l22.4-3.9c4.1-0.7,6.8-4.6,6.1-8.7L18.9-66.5C18.3-70.2,15.1-72.7,11.6-72.7z M-24.5-51.3l30-5.3L13.7-10
							l-30,5.3L-24.5-51.3z"/>
					</g>
				</g>
				<g id="g400" transform="translate(407.3003,387.0133)">
					<g id="path402">
						<path class="st0" d="M34.7-72.3c-0.4,0-0.9,0-1.3,0.1l-44.7,7.9c-4.1,0.7-6.8,4.6-6.1,8.7l10,56.9c0.7,4.1,4.6,6.8,8.7,6.1
							c4.1-0.7,6.8-4.6,6.1-8.7l-8.7-49.5l30-5.3l18.9,107l-30,5.3l-4-22.5c-0.7-4.1-4.6-6.8-8.7-6.1c-4.1,0.7-6.8,4.6-6.1,8.7
							L4,66.2c0.7,4.1,4.6,6.8,8.7,6.1l44.7-7.9c4.1-0.7,6.8-4.6,6.1-8.7L42.1-66.1C41.4-69.7,38.3-72.3,34.7-72.3z"/>
					</g>
				</g>
				<g id="g404" transform="translate(498.0565,460.9402)">
					<g id="path406">
						<path class="st0" d="M-3.9-29.9c-0.4,0-0.9,0-1.3,0.1l-106,18.7c-2,0.3-3.7,1.5-4.8,3.1c-1.1,1.6-1.6,3.6-1.2,5.6l7.9,44.7
							c0.3,2,1.5,3.7,3.1,4.8c1.6,1.1,3.6,1.6,5.6,1.2l106-18.7c2-0.3,3.7-1.5,4.8-3.1c1.1-1.6,1.6-3.6,1.2-5.6L3.4-23.7
							c-0.3-2-1.5-3.7-3.1-4.8C-0.9-29.4-2.4-29.9-3.9-29.9z M-101.3,2.4L-10-13.7l2.6,15c0,0,0,0,0,0l2.6,15L-96,32.4L-101.3,2.4z"
							/>
					</g>
				</g>
			</g>
		</g>
	</g>
</g>
</svg>
