<?xml version="1.0" encoding="utf-8"?>
<!-- Generator: Adobe Illustrator 27.7.0, SVG Export Plug-In . SVG Version: 6.00 Build 0)  -->
<svg version="1.1" id="Line-Expand" xmlns="http://www.w3.org/2000/svg" xmlns:xlink="http://www.w3.org/1999/xlink" x="0px"
	 y="0px" viewBox="0 0 512 512" style="enable-background:new 0 0 512 512;" xml:space="preserve">
<style type="text/css">
	.st0{fill:#FFFFFF;}
</style>
<path class="st0" d="M472.7,400H24c-4.4,0-8,3.6-8,8v32c0,30.9,25.1,56,56,56h240c30.9,0,56-25.1,56-56v-24h25
	c3.3,14,15.1,24.8,30.1,26.1l47.4,4.3c0.7,0.1,1.4,0.1,2.1,0.1c5.8,0,11.4-2.2,15.7-6.1c4.8-4.4,7.6-10.7,7.6-17.2
	C496,410.4,485.6,400,472.7,400L472.7,400z M352,440c0,22.1-17.9,40-40,40H72c-22.1,0-40-17.9-40-40v-24h320V440z M477.6,428.6
	c-1.5,1.4-3.5,2.1-5.6,1.9l-47.4-4.3c-6.6-0.6-12.1-4.6-14.8-10.2h62.9c4,0,7.3,3.3,7.3,7.3C480,425.3,479.2,427.3,477.6,428.6
	L477.6,428.6z"/>
<path class="st0" d="M88,128c6.3,0,11.8-1,16.4-2.5l-8,23.9c-0.8,2.4-0.4,5.1,1.1,7.2c1.5,2.1,3.9,3.3,6.5,3.3h80
	c2.6,0,5-1.2,6.5-3.3c1.5-2.1,1.9-4.8,1.1-7.2l-8-23.9c4.6,1.5,10.1,2.5,16.4,2.5c19.2,0,40-18.4,40-48c0-30.8-30-64-96-64
	S48,49.2,48,80C48,109.6,68.8,128,88,128L88,128z M144,32c63.3,0,80,31.4,80,48c0,19.8-12.5,32-24,32c-18.4,0-24.6-11.2-24.8-11.6
	c-1.9-3.8-6.3-5.4-10.2-3.8s-5.9,5.9-4.5,9.9l12.5,37.5h-57.8l12.5-37.5c1.3-3.9-0.6-8.2-4.4-9.8c-3.8-1.7-8.3,0-10.2,3.6
	c-0.3,0.5-6.5,11.7-24.9,11.7c-11.5,0-24-12.2-24-32C64,63.4,80.7,32,144,32L144,32z"/>
<path class="st0" d="M260.7,240.8l-33.9,34C214.7,286.8,208,302.9,208,320s6.7,33.2,18.7,45.3S254.9,384,272,384s33.2-6.7,45.3-18.7
	l79.2-79.2c31.2-31.2,31.2-81.9,0-113.1s-82-31.2-113.1,0C265.4,190.8,257.1,215.9,260.7,240.8L260.7,240.8z M277.1,242
	c-4.2-21,2.4-42.6,17.5-57.7c25-25,65.6-25,90.5,0c25,25,25,65.6,0,90.5l-79.2,79.2C296.9,363,284.8,368,272,368s-24.9-5-33.9-14.1
	S224,332.8,224,320s5-24.9,14.1-33.9l36.9-36.9C276.8,247.3,277.6,244.6,277.1,242L277.1,242z"/>
<path class="st0" d="M345.5,236.5c6.4,0,12.4-2.5,17-7c4.5-4.5,7-10.6,7-17s-2.5-12.4-7-17s0,0,0,0c-9.1-9.1-24.9-9.1-33.9,0
	c-4.5,4.5-7,10.6-7,17s2.5,12.4,7,17C333.1,234,339.1,236.5,345.5,236.5L345.5,236.5z M339.9,206.9c1.5-1.5,3.5-2.3,5.7-2.3
	s4.1,0.8,5.7,2.3c1.5,1.5,2.3,3.5,2.3,5.7s-0.8,4.1-2.3,5.7c-3,3-8.3,3-11.3,0c-1.5-1.5-2.3-3.5-2.3-5.7S338.4,208.4,339.9,206.9z"
	/>
<path class="st0" d="M368,32V16c-44.1,0-80,35.9-80,80h16C304,60.7,332.7,32,368,32z"/>
<path class="st0" d="M56,184h16c0-26.5-21.5-48-48-48v16C41.6,152,56,166.4,56,184z"/>
<path class="st0" d="M208,208h16c0-22.1,17.9-40,40-40v-16C233.1,152,208,177.1,208,208z"/>
<path class="st0" d="M384,16h16v16h-16V16z"/>
<path class="st0" d="M336,368h16v16h-16V368z"/>
<path class="st0" d="M27.7,351c7.6,7.6,17.6,11.7,28.3,11.7s20.7-4.2,28.3-11.7c1.6-1.6,3.1-3.4,4.5-5.5c7.8-0.9,15-4.1,21-9.1
	l30.6,36.7c1.4,1.7,3.5,2.8,5.8,2.9c0.1,0,0.2,0,0.4,0c2.1,0,4.2-0.8,5.7-2.3l45.3-45.3c1.6-1.6,2.4-3.8,2.3-6
	c-0.1-2.2-1.1-4.3-2.9-5.8L160.2,286c5-6,8.2-13.2,9.1-21c2.1-1.4,3.9-2.9,5.5-4.5c15.6-15.6,15.6-41,0-56.6
	c-7.6-7.6-17.6-11.7-28.3-11.7c-8.2,0-16,2.4-22.6,7c-6.6-4.6-14.4-7-22.6-7c-10.7,0-20.7,4.2-28.3,11.7c-1.6,1.6-3.1,3.4-4.5,5.5
	c-9,1-17.3,5-23.8,11.5c-6.5,6.5-10.5,14.8-11.5,23.8c-2.1,1.4-3.9,2.9-5.5,4.5C13.9,263,12.3,284.5,23,300.1
	C12.3,315.7,13.9,337.2,27.7,351L27.7,351z M147,356.2L120,323.7c3.5-7.2,4.9-15.3,3.8-23.4l0.2-0.2c8.1,1.1,16.3-0.3,23.5-3.8
	l32.4,27.1L147,356.2z M39,294.5c-9.4-9.4-9.4-24.6,0-33.9c1.5-1.5,3.3-2.8,5.7-4.1c2.6-1.4,4.2-4.1,4.2-7.1c0-6.5,2.5-12.5,7-17.1
	c4.5-4.5,10.5-7,17-7h0.2c3,0,5.7-1.6,7.1-4.2c1.3-2.4,2.6-4.3,4.1-5.7c9.1-9.1,24.9-9.1,33.9,0c3,3,8.3,3,11.3,0
	c9.1-9.1,24.9-9.1,33.9,0c9.4,9.4,9.4,24.6,0,33.9c-1.5,1.5-3.3,2.8-5.7,4.1c-2.6,1.4-4.3,4.1-4.2,7.1c0,6.5-2.4,12.6-7,17.1
	c-6,6-14.7,8.3-23.1,6.1c-2.8-0.7-5.7,0.1-7.7,2.1l-6.3,6.3c-2,2-2.8,5-2.1,7.7c2.2,8.4-0.1,17.1-6.1,23.1c-4.5,4.5-10.5,7-17,7
	c-0.1,0-0.1,0-0.2,0c-3,0-5.7,1.6-7.1,4.2c-1.3,2.4-2.6,4.2-4.1,5.7c-9.4,9.4-24.6,9.4-33.9,0c-9.4-9.4-9.4-24.6,0-33.9
	C42.2,302.6,42.2,297.6,39,294.5L39,294.5z"/>
</svg>
