<?xml version="1.0" encoding="utf-8"?>
<!-- Generator: Adobe Illustrator 27.7.0, SVG Export Plug-In . SVG Version: 6.00 Build 0)  -->
<svg version="1.1" id="Layer_1" xmlns="http://www.w3.org/2000/svg" xmlns:xlink="http://www.w3.org/1999/xlink" x="0px" y="0px"
	 viewBox="0 0 512 512" style="enable-background:new 0 0 512 512;" xml:space="preserve">
<style type="text/css">
	.st0{fill:#FFFFFF;}
</style>
<path class="st0" d="M309.2,466.1c-0.2-1.5-0.6-3-1.4-4.4c-3.1-5-9.7-6.6-14.7-3.5c-8.6,5.3-17.4,8.6-26.4,10.1V362.7h17.2
	c5.9,0,10.7-4.8,10.7-10.7s-4.8-10.7-10.7-10.7h-17.2v-74.7h25.1c5.9,0,10.7-4.8,10.7-10.7s-4.8-10.7-10.7-10.7h-25.1v-74.7h96.8
	c6.3,26.2,9.9,55,9.9,85.3c0,5.9,4.8,10.7,10.7,10.7h84.8c-0.6,11-1.7,21.9-3.9,32.5c-1.2,5.8,2.5,11.4,8.2,12.7
	c5.8,1.2,11.4-2.5,12.7-8.2c3.3-15.4,4.9-31.4,4.9-47.5c0-129.4-105.3-234.7-234.7-234.7S21.3,126.6,21.3,256S126.6,490.7,256,490.7
	c16.9,0,33.6-1.8,49.6-5.4c5.7-1.3,9.4-7,8.1-12.7C313,469.8,311.4,467.6,309.2,466.1L309.2,466.1z M245.3,468.4
	c-38.8-6.4-72.1-47.3-90.8-105.7h90.8V468.4z M245.3,341.3h-96.8c-5.6-23.1-8.8-48.2-9.6-74.7h106.4V341.3z M43.2,266.7h74.4
	c0.7,26.4,3.8,51.4,9,74.7h-66C50.5,318.3,44.5,293.1,43.2,266.7z M60.6,170.7h66c-5.2,23.2-8.3,48.3-9,74.7H43.2
	C44.5,218.9,50.5,193.7,60.6,170.7z M245.3,245.3H139c0.7-26.4,4-51.6,9.6-74.7h96.8V245.3z M245.3,43.6v105.7h-90.8
	C173.2,91,206.5,50,245.3,43.6z M266.7,149.3V43.6c38.8,6.4,72.1,47.3,90.8,105.7H266.7z M385.4,170.7h66
	c10.1,23.1,16.1,48.2,17.4,74.7h-74.3C393.9,218.9,390.6,193.9,385.4,170.7L385.4,170.7z M440.5,149.3h-60.6
	c-11.4-38.8-29-71-50.7-93.5C376.3,73.2,415.6,106.5,440.5,149.3z M182.9,55.8c-21.7,22.5-39.3,54.7-50.8,93.5H71.5
	C96.4,106.5,135.8,73.1,182.9,55.8z M71.5,362.7h60.6c11.5,38.8,29,71.1,50.8,93.5C135.8,438.9,96.4,405.5,71.5,362.7z"/>
<path class="st0" d="M478.6,338.4l-137.9-66.2c-6.9-3.3-15.2-2.7-21.5,1.7c-6.3,4.4-9.8,11.9-9,19.6l15,152.2
	c0.8,8.5,6.4,15.4,14.5,18.1c8.1,2.7,16.7,0.4,22.5-5.8l19.2-20.9l25,35.7c4.9,7,12.2,11.7,20.7,13.2c1.9,0.3,3.8,0.5,5.6,0.5
	c6.5,0,12.9-2,18.3-5.8l17.5-12.2c14.4-10.1,18-30.1,7.9-44.6l-25-35.7l26.2-10.8c7.9-3.3,12.9-10.6,13.2-19.1
	C490.9,349.7,486.2,342.1,478.6,338.4L478.6,338.4z M430.8,373.5c-3,1.2-5.3,3.8-6.2,6.9c-0.9,3.1-0.4,6.5,1.5,9.1l32.6,46.6
	c3.4,4.8,2.2,11.5-2.6,14.9l-17.5,12.2c-2.3,1.6-5.2,2.3-8,1.8c-2.8-0.5-5.2-2-6.9-4.4L391.2,414c-1.9-2.7-4.8-4.3-8-4.5
	c-0.2,0-0.5,0-0.7,0c-3,0-5.8,1.2-7.9,3.5l-28.1,30.7l-15-152.2l137.9,66.2L430.8,373.5L430.8,373.5z"/>
</svg>
