<?xml version="1.0" encoding="utf-8"?>
<!-- Generator: Adobe Illustrator 27.7.0, SVG Export Plug-In . SVG Version: 6.00 Build 0)  -->
<svg version="1.1" id="Слой_1" xmlns="http://www.w3.org/2000/svg" xmlns:xlink="http://www.w3.org/1999/xlink" x="0px" y="0px"
	 viewBox="0 0 512 512" style="enable-background:new 0 0 512 512;" xml:space="preserve">
<style type="text/css">
	.st0{fill:#FFFFFF;}
</style>
<g transform="translate(-54.04 -26.61)">
	<path class="st0" d="M123.1,480.4c-0.4,0-0.8,0-1.2-0.1c-7.1-0.7-12.4-7-11.7-14.1c0,0,0,0,0,0l24.7-263.1
		c0.5-5.2,4.1-9.6,9.1-11.2c110.7-34.4,170.2-0.2,172.7,1.2c3.9,2.3,6.3,6.6,6.3,11.2v263.1c0,7.2-5.8,13-13,13c-7.2,0-13-5.8-13-13
		V212.6c-10.3-4-21-6.7-31.9-8.1c-22-3.1-57.7-3.8-105.3,9.8L136,468.6C135.3,475.2,129.8,480.3,123.1,480.4L123.1,480.4z"/>
	<path class="st0" d="M123.1,480.4c-7.2,0-13-5.8-12.9-13c0-5.5,3.5-10.4,8.6-12.2c51.6-18.4,99.6-24.3,142.7-17.6
		c7.1,1.1,11.9,7.8,10.8,14.8c-1.1,7.1-7.8,11.9-14.8,10.8l0,0c-38.2-6-83.1-0.3-129.9,16.4C126,480.1,124.6,480.4,123.1,480.4
		L123.1,480.4z"/>
	<path class="st0" d="M497,480.4c-6.7,0-12.3-5.1-12.9-11.8l-10.2-108.3c-0.7-7.1,4.6-13.5,11.7-14.1c7.1-0.7,13.5,4.6,14.1,11.7
		l10.2,108.3c0.7,7.1-4.6,13.5-11.7,14.1c0,0,0,0,0,0C497.8,480.3,497.4,480.4,497,480.4L497,480.4z"/>
	<path class="st0" d="M310,480.4c-7.1,0-12.9-5.8-12.9-12.9c0-0.1,0-0.1,0-0.2V204.3c0-4.6,2.4-8.8,6.3-11.2
		c1.3-0.8,13.8-7.9,37.2-12.6c7.1-1.1,13.7,3.8,14.8,10.9c1,6.6-3.2,12.9-9.7,14.5c-7.7,1.5-15.3,3.7-22.7,6.5v234.2
		c29.2-11,89.3-23.4,178.4,8.4c6.8,2.3,10.5,9.6,8.2,16.4c-2.3,6.8-9.6,10.5-16.4,8.2c-0.2-0.1-0.3-0.1-0.5-0.2
		c-59.9-21.4-104.4-20.6-131.3-16.2c-28.9,4.7-44,14.6-44.1,14.7C315.2,479.6,312.6,480.4,310,480.4L310,480.4z"/>
	<path class="st0" d="M310,538.6c-16.1,0.1-31.6-6.3-43-17.8c-2.8-2.9-6.8-4.4-10.9-4L92.9,535.4c-19.2,2.2-36.5-11.6-38.7-30.8
		c-0.3-2.7-0.3-5.4,0-8.1l28.6-237.7c1.6-14.1,12.9-25.2,27.1-26.5l29.5-2.9c7.1-0.7,13.5,4.5,14.2,11.6c0.7,7.1-4.5,13.5-11.6,14.2
		l-29.5,2.9c-2,0.2-3.6,1.8-3.9,3.8L80.1,499.6c-0.6,4.9,2.9,9.4,7.9,10c0.7,0.1,1.4,0.1,2.1,0l163.3-18.5
		c11.9-1.3,23.8,2.9,32.2,11.4c13.6,13.5,35.5,13.5,49.1,0c8.4-8.6,20.3-12.8,32.2-11.4l163.3,18.5c4.9,0.6,9.4-3,9.9-7.9
		c0.1-0.7,0.1-1.4,0-2.1l-21.4-177.8c-0.7-7.1,4.5-13.5,11.6-14.2c6.9-0.7,13.2,4.2,14.2,11.1l21.4,177.8
		c2.3,19.2-11.3,36.6-30.5,38.9c-2.7,0.3-5.4,0.3-8.1,0l-163.3-18.5c-4-0.4-8,1-10.9,3.9C341.6,532.3,326.2,538.7,310,538.6
		L310,538.6z"/>
	<path class="st0" d="M405.4,347.9c-3.5,0-6.8-1.4-9.3-3.9c-0.6-0.6-14.4-14.8-22.9-40.7c-7.7-23.4-12.7-61.6,7.1-110.7
		c16.6-41.3,39.8-64,62.3-86c20.5-20,39.8-38.9,53-71.8c2.7-6.6,10.2-9.9,16.8-7.2c23.8,9.6,39.3,27.3,44.8,51.2
		c3.9,16.9,2.7,36.4-3.5,58.3c6.2,0.5,11.2,5.2,11.9,11.3c0.3,2.5,6.3,58.1-55.4,104.3l5.8,5.6c3.8,3.7,4.9,9.3,3,14.1
		c-12.1,30.1-35.7,52.7-68.1,65.3c-14.5,5.7-29.8,9.1-45.3,10L405.4,347.9z M513.9,57.5c-14.8,30.1-34.3,49.1-53.1,67.6
		c-21.5,21-41.7,40.8-56.3,77.1c-26.2,65-2.8,106.2,6.7,119.2c10.8-1.3,21.3-4,31.4-8c22.6-9,39.1-23.4,49.1-42.8L481,260.3
		c-5.1-5-5.2-13.2-0.2-18.3c0.7-0.7,1.5-1.4,2.4-1.9c40.7-25.6,52.5-55.4,55.8-73l-1.7,0.4c-6.9,1.8-14-2.4-15.8-9.4
		c-0.7-2.7-0.5-5.5,0.5-8c10.4-25.8,13.8-48.4,10-65.4C529.3,72.9,523.3,63.9,513.9,57.5L513.9,57.5z"/>
	<path class="st0" d="M387.1,393.2c-7.2,0-13-5.8-13-13c0-1.7,0.3-3.3,0.9-4.9l83.6-207.5c2.7-6.6,10.2-9.9,16.9-7.2
		s9.9,10.2,7.2,16.9l-83.6,207.5C397.2,390,392.4,393.2,387.1,393.2L387.1,393.2z"/>
</g>
</svg>
