<?xml version="1.0" encoding="utf-8"?>
<!-- Generator: Adobe Illustrator 27.7.0, SVG Export Plug-In . SVG Version: 6.00 Build 0)  -->
<svg version="1.1" id="Icons" xmlns="http://www.w3.org/2000/svg" xmlns:xlink="http://www.w3.org/1999/xlink" x="0px" y="0px"
	 viewBox="0 0 512 512" style="enable-background:new 0 0 512 512;" xml:space="preserve">
<style type="text/css">
	.st0{fill:#FFFFFF;}
</style>
<path class="st0" d="M145.1,512c80,0,145.1-58.4,145.1-130.1c0-3.2-0.2-6.4-0.4-9.7c101.9,19.1,200-48.1,219.1-150
	c6.8-36.5,2.7-74.2-11.9-108.3l-0.1-0.1C473,58.5,424.1,17.9,365.3,4.6l0,0c-43.6-9.8-89.2-3.7-128.6,17.4c-1.3,0.3-2.6,1-3.6,1.9
	c-21.3,11.9-40.2,27.8-55.5,46.8c-0.1,0.1-0.2,0.2-0.3,0.3c-3.2,4-6.3,8.3-9.2,12.6c-19.8-12.8-46.2-7.1-59,12.7
	c-1.3,1.9-2.4,4-3.3,6.1H94.7c-16.6,0-30.1,13.5-30,30.1c0,2.8,0.4,5.5,1.2,8.2l16.6,58.4c-12.6,6.2-17.7,21.4-11.5,34
	c1.4,2.9,3.4,5.5,5.8,7.6C33.3,272.7,0,332.6,0,381.9C0,453.6,65.1,512,145.1,512z M93.9,230.4c-4.7,0-8.5-3.8-8.5-8.5
	c0-4.7,3.8-8.5,8.5-8.5h102.4c4.7,0,8.5,3.8,8.5,8.5c0,4.7-3.8,8.5-8.5,8.5H93.9z M219.6,232.2l34,8.5c11.4,2.8,19.4,13.1,19.4,24.8
	V293c0,4.8-1.4,9.6-4,13.7c-13.5-25.8-32.5-48.3-55.6-66C216.1,238.4,218.2,235.5,219.6,232.2L219.6,232.2z M479.5,117.2l-11.9,15.9
	c-1.6,2.1-4.1,3.4-6.8,3.4h-8.5c-14.1,0.1-25.5,11.5-25.6,25.6c0,14.1,11.5,25.6,25.6,25.6h3.3l-49.2,98.4c-1.8,3.6-6.2,5-9.8,3.2
	c-2.4-1.2-4-3.7-4-6.5v-52.5c0-14.1-11.5-25.6-25.6-25.6h-8.5c-18.9,0-34.1-15.3-34.1-34.1s15.3-34.1,34.1-34.1h34.1
	c14.1-0.1,25.5-11.5,25.6-25.6c0-14.1-11.5-25.6-25.6-25.6H353c-6.4,0.1-11.6-5.1-11.7-11.5c0-0.1,0-0.2,0-0.2c0-2,0.5-4,1.5-5.8
	L368.4,23C417.6,36.3,458.4,70.9,479.5,117.2z M247.5,35.5c10.9-5.5,22.3-9.9,34.1-13v14.4c0,3.7-2.4,7-5.9,8.1l-17.1,5.7
	c-2.6,0.9-5.4,0.4-7.6-1.2c-2.2-1.6-3.6-4.2-3.6-6.9V35.5z M230.7,45.2c1.2,13.1,12.1,23.1,25.2,23.1c2.8,0,5.5-0.5,8.1-1.3
	l17.1-5.7c10.5-3.5,17.6-13.3,17.5-24.4V19.1c8.5-1.3,17-2,25.6-2c8.9,0.1,17.8,0.8,26.6,2.3L328,59.5c-2.4,4.3-3.7,9.2-3.7,14.2
	c-0.1,15.8,12.7,28.7,28.5,28.8c0.1,0,0.2,0,0.2,0h39.5c4.7,0,8.5,3.8,8.5,8.5c0,2.3-0.9,4.5-2.6,6.1c-1.6,1.6-3.7,2.5-5.9,2.4
	h-34.1c-28.3,0-51.2,22.9-51.2,51.2s22.9,51.2,51.2,51.2h8.5c4.7,0,8.5,3.8,8.5,8.5v52.5c0.1,13.5,11,24.3,24.5,24.3
	c9.1,0,17.5-5.2,21.6-13.3l50.6-101.2c3.8-7.4,0.8-16.5-6.7-20.3c-2.1-1.1-4.4-1.6-6.8-1.6h-6.4c-4.7,0-8.5-3.8-8.5-8.5
	c0-2.3,0.9-4.5,2.6-6.1c1.6-1.6,3.7-2.5,5.9-2.4h8.5c8,0,15.6-3.8,20.5-10.2l5.6-7.4c28.8,89.6-20.6,185.6-110.2,214.3
	c-29,9.3-60,10.7-89.8,3.9c-2.3-10.4-5.6-20.6-9.7-30.4l0.5-0.5c8-8,12.5-18.9,12.5-30.2v-27.5c0-19.6-13.3-36.6-32.3-41.4l-37-9.2
	c-2-6.9-6.7-12.6-13.1-15.8l16.6-58.3c2.2-8,1.1-16.5-3.3-23.6l3.4-4.2c9.5-11.8,7.6-29.1-4.2-38.6c-4.9-3.9-11-6.1-17.2-6.1h-0.3
	C211.1,59.6,220.6,51.9,230.7,45.2z M184.2,102.4c-1-2.3-2.2-4.5-3.6-6.5c2.3-3.6,4.8-7.1,7.3-10.6h15c5.7,0,10.4,4.7,10.4,10.4
	c0,2.4-0.8,4.7-2.3,6.5l-2.5,3.1c-4.1-2-8.6-3-13.1-3H184.2z M84.4,124.6c2.4-3.2,6.3-5.1,10.3-5.1h7.7v34.1c0,4.7,3.8,8.5,8.5,8.5
	c4.7,0,8.5-3.8,8.5-8.5v-34.1c0-2.2,0.3-4.3,0.9-6.4c0-0.1,0-0.1,0-0.2c0-0.1,0.1-0.2,0.1-0.3c3.8-13.6,17.9-21.6,31.5-17.8
	c8.6,2.4,15.4,9.1,17.8,17.7c0,0.2,0.1,0.3,0.2,0.5c0,0.2,0,0.1,0,0.2c0.5,2.1,0.8,4.3,0.8,6.4v34.1c0,4.7,3.8,8.5,8.5,8.5
	s8.5-3.8,8.5-8.5v-34.1h7.7c7.2,0,13,5.9,12.9,13.1c0,1.2-0.2,2.4-0.5,3.5l-17.1,60.2H99.3l-17.1-60.2
	C81.1,132.1,81.9,127.9,84.4,124.6z M97.2,247.5h95.7c40.2,26.5,68.3,67.9,78.3,115c0,0.1,0,0.2,0.1,0.3c1.2,6.3,1.8,12.8,1.8,19.2
	c0,62.3-57.4,113-128,113s-128-50.7-128-113C17.1,334.3,53.6,273.3,97.2,247.5z"/>
<path class="st0" d="M119.5,401.1c0-4.7-3.8-8.5-8.5-8.5c-4.7,0-8.5,3.8-8.5,8.5c0,20.3,14.3,37.7,34.1,41.8v0.9
	c0,4.7,3.8,8.5,8.5,8.5c4.7,0,8.5-3.8,8.5-8.5v-0.9c23.1-4.7,38-27.2,33.3-50.3c-3.4-16.8-16.5-29.9-33.3-33.3v-50.5
	c10.2,3.6,17,13.2,17.1,24c0,4.7,3.8,8.5,8.5,8.5s8.5-3.8,8.5-8.5c0-20.3-14.3-37.7-34.1-41.8v-0.9c0-4.7-3.8-8.5-8.5-8.5
	c-4.7,0-8.5,3.8-8.5,8.5v0.9c-23.1,4.7-38,27.2-33.3,50.3c3.4,16.8,16.5,29.9,33.3,33.3v50.5C126.3,421.5,119.5,411.9,119.5,401.1z
	 M170.7,401.1c0,10.8-6.9,20.4-17.1,24V377C163.8,380.6,170.6,390.3,170.7,401.1z M119.5,332.8c0-10.8,6.9-20.4,17.1-24v48.1
	C126.3,353.2,119.5,343.6,119.5,332.8z"/>
</svg>
