<?xml version="1.0" encoding="utf-8"?>
<!-- Generator: Adobe Illustrator 27.7.0, SVG Export Plug-In . SVG Version: 6.00 Build 0)  -->
<svg version="1.1" id="svg3834" xmlns:svg="http://www.w3.org/2000/svg"
	 xmlns="http://www.w3.org/2000/svg" xmlns:xlink="http://www.w3.org/1999/xlink" x="0px" y="0px" viewBox="0 0 682.7 682.7"
	 style="enable-background:new 0 0 682.7 682.7;" xml:space="preserve">
<style type="text/css">
	.st0{fill:#FFFFFF;}
</style>
<g id="g3840" transform="matrix(1.3333333,0,0,-1.3333333,0,682.66667)">
	<g id="g3842">
		<g>
			<g id="g3844">
				<g id="g3850" transform="translate(15,315)">
					<g id="path3852">
						<path class="st0" d="M0-168.5c-4.7,0-8.5,3.8-8.5,8.5V0c0,4.7,3.8,8.5,8.5,8.5S8.5,4.7,8.5,0v-160
							C8.5-164.7,4.7-168.5,0-168.5z"/>
					</g>
				</g>
				<g id="g3854" transform="translate(15,155)">
					<g id="path3856">
						<path class="st0" d="M402-148.5c-0.9,0-1.9,0.2-2.8,0.5L-2.8-8C-7.2-6.5-9.6-1.6-8,2.8C-6.5,7.2-1.6,9.6,2.8,8l399.5-139.1
							c0.4,0.1,0.8,0.2,1.2,0.3c46.5,10.7,70,41.3,70,90.8c0,4.7,3.8,8.5,8.5,8.5s8.5-3.8,8.5-8.5c0-37.2-12-65.9-35.6-85.3
							c-18.8-15.4-39.7-20.3-47.6-22.1c-0.7-0.2-1.6-0.4-2.1-0.5C404.2-148.3,403.1-148.5,402-148.5z M406.3-147.3
							C406.3-147.3,406.3-147.3,406.3-147.3C406.3-147.3,406.3-147.3,406.3-147.3z"/>
					</g>
				</g>
				<g id="g3858" transform="translate(497,315)">
					<g id="path3860">
						<path class="st0" d="M0-208.5c-4.7,0-8.5,3.8-8.5,8.5V0c0,4.7,3.8,8.5,8.5,8.5S8.5,4.7,8.5,0v-200
							C8.5-204.7,4.7-208.5,0-208.5z"/>
					</g>
				</g>
				<g id="g3862" transform="translate(417,175)">
					<g id="path3864">
						<path class="st0" d="M0-168.5c-4.7,0-8.5,3.8-8.5,8.5V0c0,4.7,3.8,8.5,8.5,8.5S8.5,4.7,8.5,0v-160
							C8.5-164.7,4.7-168.5,0-168.5z"/>
					</g>
				</g>
				<g id="g3866" transform="translate(15,235)">
					<g id="path3868">
						<path class="st0" d="M252-96c-0.9,0-1.9,0.2-2.8,0.5L-2.8-8C-7.2-6.5-9.6-1.6-8,2.8C-6.5,7.2-1.6,9.6,2.8,8l252-87.5
							c4.4-1.5,6.8-6.4,5.2-10.8C258.8-93.8,255.5-96,252-96z"/>
					</g>
				</g>
				<g id="g3870" transform="translate(321.9062,128.2822)">
					<g id="path3872">
						<path class="st0" d="M95.1-41.8c-0.9,0-1.9,0.2-2.8,0.5L-2.8-8C-7.2-6.5-9.6-1.6-8,2.8C-6.5,7.2-1.6,9.6,2.8,8l95.1-33.3
							c4.4-1.6,6.8-6.4,5.2-10.8C101.9-39.6,98.6-41.8,95.1-41.8z"/>
					</g>
				</g>
				<g id="g3874" transform="translate(177.2588,371.5391)">
					<g id="path3876">
						<path class="st0" d="M119.7-265c-21.2,0-38.5,17.3-38.5,38.5v76.5L-165-64.6c-3.4,1.2-5.7,4.4-5.7,8c0,3.6,2.3,6.8,5.7,8
							C-110.4-29.4-54.8-10-2.8,8C1.6,9.6,6.5,7.2,8,2.8S7.2-6.5,2.8-8c-44.7-15.5-92.1-32-139.2-48.5L92.5-136
							c3.4-1.2,5.7-4.4,5.7-8v-82.5c0-11.9,9.6-21.5,21.5-21.5s21.5,9.6,21.5,21.5v61.5c0,2.8,1.3,5.3,3.6,6.9
							c2.2,1.6,5.1,2,7.7,1.1l86.1-30.1c6.4,4.3,21.3,15.3,35.9,32.7c24.3,29.1,36.7,62,36.7,97.9c0,0.2-0.1,23.3-10.1,51.4
							c-12.2,34.4-33.2,61.1-62.4,79.3c-46-16.1-91.3-31.9-126-43.9c-4.4-1.5-9.3,0.8-10.8,5.2c-1.5,4.4,0.8,9.3,5.2,10.8
							c35.6,12.4,82.5,28.7,129.7,45.2c2.4,0.8,5,0.6,7.1-0.7c33.9-20,59.2-51.2,73.1-90.3c11-30.9,11.1-56,11.1-57.1
							c0-39.4-14.1-77-40.6-108.8c-21-25.1-42.6-38-43.5-38.5c-2.2-1.3-4.8-1.5-7.1-0.7L158.2-177v-49.5
							C158.2-247.8,141-265,119.7-265z"/>
					</g>
				</g>
				<g id="g3878" transform="translate(237,437)">
					<g id="path3880">
						<path class="st0" d="M0-8.5c-4.7,0-8.5,3.8-8.5,8.5c0,21.4-11.9,40.7-31.1,50.3l-4.2,2.1c-4.2,2.1-5.9,7.2-3.8,11.4
							c2.1,4.2,7.2,5.9,11.4,3.8l4.2-2.1C-7,53,8.5,27.9,8.5,0C8.5-4.7,4.7-8.5,0-8.5z"/>
					</g>
				</g>
				<g id="g3882" transform="translate(427,380)">
					<g id="path3884">
						<path class="st0" d="M0,0c0-8.3-6.7-15-15-15S-30-8.3-30,0s6.7,15,15,15S0,8.3,0,0"/>
						<path class="st0" d="M-15-23.5C-28-23.5-38.5-13-38.5,0S-28,23.5-15,23.5S8.5,13,8.5,0S-2-23.5-15-23.5z M-15,6.5
							c-3.6,0-6.5-2.9-6.5-6.5s2.9-6.5,6.5-6.5S-8.5-3.6-8.5,0S-11.4,6.5-15,6.5z"/>
					</g>
				</g>
				<g id="g3886" transform="translate(447,310)">
					<g id="path3888">
						<path class="st0" d="M0,0c0-8.3-6.7-15-15-15S-30-8.3-30,0s6.7,15,15,15S0,8.3,0,0"/>
						<path class="st0" d="M-15-23.5C-28-23.5-38.5-13-38.5,0S-28,23.5-15,23.5S8.5,13,8.5,0S-2-23.5-15-23.5z M-15,6.5
							c-3.6,0-6.5-2.9-6.5-6.5s2.9-6.5,6.5-6.5S-8.5-3.6-8.5,0S-11.4,6.5-15,6.5z"/>
					</g>
				</g>
				<g id="g3890" transform="translate(397,250)">
					<g id="path3892">
						<path class="st0" d="M0,0c0-8.3-6.7-15-15-15S-30-8.3-30,0s6.7,15,15,15S0,8.3,0,0"/>
						<path class="st0" d="M-15-23.5C-28-23.5-38.5-13-38.5,0c0,13,10.5,23.5,23.5,23.5S8.5,13,8.5,0C8.5-13-2-23.5-15-23.5z
							 M-15,6.5c-3.6,0-6.5-2.9-6.5-6.5c0-3.6,2.9-6.5,6.5-6.5S-8.5-3.6-8.5,0C-8.5,3.6-11.4,6.5-15,6.5z"/>
					</g>
				</g>
				<g id="g3894" transform="translate(367,320)">
					<g id="path3896">
						<path class="st0" d="M0,0c0-8.3-6.7-15-15-15S-30-8.3-30,0s6.7,15,15,15S0,8.3,0,0"/>
						<path class="st0" d="M-15-23.5C-28-23.5-38.5-13-38.5,0S-28,23.5-15,23.5S8.5,13,8.5,0S-2-23.5-15-23.5z M-15,6.5
							c-3.6,0-6.5-2.9-6.5-6.5s2.9-6.5,6.5-6.5S-8.5-3.6-8.5,0S-11.4,6.5-15,6.5z"/>
					</g>
				</g>
				<g id="g3898" transform="translate(177,377)">
					<g id="path3900">
						<path class="st0" d="M60-68.5C22.2-68.5-8.5-37.8-8.5,0S22.2,68.5,60,68.5S128.5,37.8,128.5,0S97.8-68.5,60-68.5z M60,51.5
							C31.6,51.5,8.5,28.4,8.5,0S31.6-51.5,60-51.5c28.4,0,51.5,23.1,51.5,51.5S88.4,51.5,60,51.5z"/>
					</g>
				</g>
			</g>
		</g>
	</g>
</g>
</svg>
