<?xml version="1.0" encoding="utf-8"?>
<!-- Generator: Adobe Illustrator 27.7.0, SVG Export Plug-In . SVG Version: 6.00 Build 0)  -->
<svg version="1.1" id="Capa_1" xmlns="http://www.w3.org/2000/svg" xmlns:xlink="http://www.w3.org/1999/xlink" x="0px" y="0px"
	 viewBox="0 0 512 512" style="enable-background:new 0 0 512 512;" xml:space="preserve">
<style type="text/css">
	.st0{fill:#FFFFFF;}
</style>
<path class="st0" d="M94.5,69.4c4.1,0,7.5-3.4,7.5-7.5V15.5c0-0.3,0.2-0.5,0.5-0.5h215.3c0.3,0,0.5,0.2,0.5,0.5v151.8
	c0,4.1,3.4,7.5,7.5,7.5c4.1,0,7.5-3.4,7.5-7.5V15.5c0-8.5-7-15.5-15.5-15.5H102.5C94,0,87,7,87,15.5v46.4
	C87,66.1,90.4,69.4,94.5,69.4z"/>
<path class="st0" d="M446.4,231.8c-9.1-11-24-17.1-37.9-15.5c-13.9,1.6-26.7,10.3-33.6,22.6c-1.8,3.2-3.2,6.4-4.5,9.4
	c-0.8,1.9-1.6,3.7-2.4,5.4c-5-4.3-9.6-9.3-11.1-15.1c-0.7-2.8-0.8-6-0.8-9.4c-0.1-3.9-0.1-8.4-1.3-12.8c-2.1-8.1-7.6-15.5-15.1-20.3
	c-8.2-5.2-18.6-7.3-28.3-5.7v-12.4c0-0.2,0-0.3,0-0.5V29.5c0-4.1-3.4-7.5-7.5-7.5H116.5c-4.1,0-7.5,3.4-7.5,7.5v241.8
	c0,4.1,3.4,7.5,7.5,7.5h155.3c4.1,0,7.5-3.4,7.5-7.5c0-4.1-3.4-7.5-7.5-7.5H124v-12.4c10.2-2.8,21.1-1.9,32.7-0.9
	c4.6,0.4,9.3,0.8,14.1,1c22.3,0.8,40.2-6.1,51.6-19.8c4.3-5.2,7.7-10.8,11-16.3c4.7-7.7,9.1-15.1,15.6-20.2
	c10-7.9,25.5-11.4,47.4-10.6v11.6c-11.2,8.1-15.8,22.5-10.6,35.2c3.3,8,9.9,13.4,12.3,18.9c4.3,9.6-5.4,19.7-4.9,35.4H102.5
	c-0.3,0-0.5-0.2-0.5-0.5V91.9c0-4.1-3.4-7.5-7.5-7.5c-4.1,0-7.5,3.4-7.5,7.5v193.4c0,8.5,7,15.5,15.5,15.5h193.9
	c6.1,14.4,18.1,20.2,19.5,33.5c1.1,10-0.5,19.6,4.9,33c0.2,2.6,0.5,5.2,1.1,7.7c0.1,0.6,0.3,1.1,0.4,1.7h-9.2c-5.1,0-9.9,2.2-13.2,6
	c-3.3,3.8-4.8,8.9-4.2,13.9l13.2,97.2c1.4,10.4,10.3,18.2,20.8,18.2H391c10.5,0,19.4-7.8,20.8-18.2l13.2-97.2
	c0.7-5-0.8-10.1-4.2-13.9c-6-6.9-14.3-5.9-14.8-6c0.6-5.7,0-10.8-0.8-16.4c-3.2-23.7,3.4-20,17.2-26.7c3.7-1.8,5.3-6.3,3.5-10
	s-6.3-5.3-10-3.5c-1.6,0.8-3.4,1.4-5.2,2.1c-7.2,2.7-17.2,6.5-20.3,19.5c-1.8,7.3-0.8,14.3,0,20.5c0.5,3.7,1,7.2,0.9,10.6
	c0,1.3-0.2,2.5-0.4,3.8H373c-1.6-38.4,12.4-77.5,38.3-105.6c2.8-3,2.6-7.8-0.4-10.6c-3-2.8-7.8-2.6-10.6,0.4
	c-28.4,30.9-43.9,73.6-42.2,115.8H338c-2-5.1-2.1-8.3-2.4-11.7c-0.6-23,16.6-26.5,18-42.8c1.1-13-10.1-22.5-9.3-29.4
	c0.8-7.8,15.9-11.6,23.8-16.7c12.5-8.2,14.5-20.2,19.9-29.9c4.6-8.2,13.1-13.9,22.2-15c8.9-1,18.7,3,24.6,10.1
	c4.3,5.3,5.1,13.7,1.8,19.7c-5,9-17.6,14.9-15.3,36.2c0.1,1.3,0.3,2.6,0.5,3.9l0.2,1.1c0.5,4.1,4.3,7,8.4,6.5c4.1-0.5,7-4.3,6.5-8.4
	l-0.2-1.2c-2.5-19,5.3-17,13.1-30.9C456.1,256.9,454.7,241.9,446.4,231.8z M410.1,394.6l-13.2,97.2c-0.4,3-3,5.2-5.9,5.2h-61.3
	c-3,0-5.5-2.2-5.9-5.2c-13.2-101.4-14.1-97.4-12.6-99.2c1.6-1.8-2.1-0.3,96.4-0.9C409.1,391.7,410.3,393.1,410.1,394.6z
	 M239.6,183.6c-8.6,6.8-13.9,15.7-19.1,24.2c-3.1,5.2-6.1,10.1-9.7,14.4c-8.5,10.2-21.8,15-39.6,14.4c-4.3-0.1-8.7-0.5-13.3-0.9
	c-11.1-1-22.5-2-34,0.4V37h172.3v132.7C271,168.9,252.4,173.4,239.6,183.6z M344.2,271.3c-1.6-3.6-3.2-7.3-4.9-11
	c-1.7-3.8-6.2-5.4-9.9-3.7c-3.8,1.7-5.4,6.2-3.7,9.9c2.4,5.3,4.7,10.5,6.9,15.6c-1.7,2.8-2.8,5.9-3.1,9.1
	c-0.8,7.6,2.5,13.8,5.5,19.2c2.1,3.9,4.1,7.5,3.8,10.4c-0.3,2.9-2.8,6.1-5.5,9.5c-0.8,1-1.6,2-2.3,3c0-0.2,0-0.4-0.1-0.6
	c-1.8-16.8-12.8-24-19-34.4c-11.7-19.7,9.1-33.1-0.1-53.9c-3.5-7.8-9.9-13-12.2-18.5c-0.3-0.7-0.5-1.3-0.6-2.1
	c-1.9-8.4,4-15.3,10.6-17.6c7.1-2.5,15.7-1.5,22,2.5c4.4,2.8,7.5,6.9,8.7,11.4c0.7,2.8,0.8,6,0.8,9.4c0.1,3.9,0.1,8.4,1.3,12.8
	c2.4,9.6,8.8,16.6,15.5,22.5c-1.8,1-3.8,1.9-5.9,2.8C349.4,268.7,346.8,269.9,344.2,271.3z"/>
<path class="st0" d="M213.7,321.8H90.5c-17.9,0-32.5,14.6-32.5,32.5c0,17.9,14.6,32.5,32.5,32.5h8.2l-6.7,26.6c0,0.1,0,0.2-0.1,0.3
	l-10,39.4c-0.1,0.2-0.1,0.4-0.2,0.6l-12.4,49.1c-1,4,1.4,8.1,5.4,9.1c0.6,0.2,1.2,0.2,1.8,0.2c3.3,0,6.4-2.3,7.3-5.7l11.5-45.5
	l56.8-19.5l56.8,19.5l11.5,45.4c0.9,3.4,3.9,5.7,7.3,5.7c0.6,0,1.2-0.1,1.8-0.2c4-1,6.4-5.1,5.4-9.1l-12.5-49.2c0-0.1,0-0.2-0.1-0.3
	l-16.8-66.4h8.2c17.9,0,32.5-14.6,32.5-32.5C246.2,336.4,231.6,321.8,213.7,321.8z M99.7,443.5l4.7-18.5l24.6,8.5L99.7,443.5z
	 M175.2,433.5l24.6-8.5l4.7,18.5L175.2,433.5z M196.1,410.4l-44,15.1l-44-15.1l6-23.7h76L196.1,410.4z M213.7,371.8H108.4
	c-0.1,0-0.2,0-0.3,0H90.5c-9.6,0-17.5-7.8-17.5-17.5s7.8-17.5,17.5-17.5h123.2c9.6,0,17.5,7.8,17.5,17.5S223.3,371.8,213.7,371.8z"
	/>
<path class="st0" d="M170.5,47.1c-16.4,0-29.8,13.4-29.8,29.8s13.4,29.8,29.8,29.8s29.8-13.4,29.8-29.8S186.9,47.1,170.5,47.1z
	 M170.5,91.7c-8.2,0-14.8-6.7-14.8-14.8s6.7-14.8,14.8-14.8s14.8,6.7,14.8,14.8S178.7,91.7,170.5,91.7z"/>
</svg>
