<?xml version="1.0" encoding="utf-8"?>
<!-- Generator: Adobe Illustrator 27.7.0, SVG Export Plug-In . SVG Version: 6.00 Build 0)  -->
<svg version="1.1" id="Capa_1" xmlns="http://www.w3.org/2000/svg" xmlns:xlink="http://www.w3.org/1999/xlink" x="0px" y="0px"
	 viewBox="0 0 512 512" style="enable-background:new 0 0 512 512;" xml:space="preserve">
<style type="text/css">
	.st0{fill:#FFFFFF;}
</style>
<g>
	<path class="st0" d="M480,129.3c-0.1-0.1-0.2-0.1-0.3-0.2l-32-17c-3.7-1.9-8.2-0.6-10.2,3.1c-1.9,3.7-0.6,8.2,3.1,10.2l31.8,16.9
		c1.8,1.2,2.6,3.5,1.7,5.5l-2.1,5.1c-5,12.3-12,18.9-21.2,20.2l-51.4,2.9c-16.4,0.9-30.4,11.8-35.8,26.8L294.2,174
		c7.7-14.9,14.3-30.4,19.4-46.6c0-0.1,0.1-0.2,0.1-0.4l0.4-1.3c0.7-1.7,1.4-3.6,2.2-5.7c3.1-8.3,7.4-19.6,10.6-24.9
		c0.9-1.4,1.2-3.1,1-4.7c-2.5-22.1,12.1-45.7,21.6-58.5c2.8,12.6,7,31.4,10.2,45.6c0.7,3.3,3.6,5.7,6.9,5.9
		c9.1,0.5,15.8,2.3,18.3,3.7c2.2,1.3,6.1,6,8.6,9.1c3.6,4.4,5.7,6.9,8.2,8.4c0.1,0.1,0.2,0.1,0.3,0.2l12.2,6.5
		c3.7,1.9,8.2,0.6,10.2-3.1c1.9-3.7,0.6-8.2-3.1-10.2l-11.7-6.2c-0.9-0.8-2.9-3.2-4.4-5.1c-3.8-4.6-8.1-9.9-12.5-12.5
		c-4.3-2.6-11.2-4.5-19.5-5.4c-4-17.7-8.9-40-11-49.3c-0.9-3.9-3.8-7-7.7-7.9c-3.9-1-8,0.3-10.6,3.4c-10.2,12-33.3,43-31.1,74.7
		c-3.6,6.7-7.4,16.8-10.5,25.1c-0.8,2.2-1.6,4.2-2.3,6c-0.1,0.3-0.2,0.5-0.3,0.8l-0.4,1.6c-6.2,19.4-14.5,38-24.7,55.5L146,3.1
		c-2.5-3.3-7.2-4.1-10.5-1.6c-3.3,2.5-4.1,7.2-1.6,10.5L266,192.3c-21.8,33-50.4,61.4-84.2,82.9c-25.3,16.1-46.3,38.5-60.7,64.8
		c-5,9.1-9.1,18.6-12.5,28.4c-12.3-18-25.1-42.8-29.3-71.5c-5.1-35.5,9.8-62.5,23.1-78.8c4.9-6,5-14.1,0.2-20.2
		c-4.8-6.1-12.8-7.9-19.7-4.4c-37.3,18.3-71.9,65.5-56.8,143.2c0.8,4.1,4.7,6.7,8.8,5.9c4.1-0.8,6.7-4.7,5.9-8.8
		c-6.5-33.8-3.6-63,8.8-86.9C62,223.2,79.9,211.7,89.6,207c0.3-0.2,0.8-0.4,1.4,0.3c0.5,0.7,0.2,1,0,1.3
		c-15.3,18.7-32.3,49.6-26.4,90.5c5.3,37.2,23.9,68.1,38.9,87.8c-2.6,11.5-4,23.3-4.3,35.1c-24.8-13-42.2-33.9-51.9-62.2
		c-1.3-3.9-5.6-6-9.5-4.7c-3.9,1.3-6,5.6-4.7,9.5c11.8,34.6,34.1,59.5,66,74V454c0,20.1,9.9,38.8,26.5,50.2
		c7.5,5.1,16.3,7.8,25.6,7.8h151.7c6.5,0,12.3-3.4,15.5-9c3.2-5.6,3.2-12.3-0.1-17.9l-1.4-2.3c-7.8-13.4-20.5-22.9-34.9-27.1
		c7.9-5.1,15.1-12.1,20.4-21.6c3.9-7,6.5-14.2,8.2-21.3l27.2,87.9c2.1,6.8,8.3,11.3,15.4,11.3h56.9c5.2,0,9.9-2.6,12.6-7
		c2.7-4.4,3-9.8,0.6-14.4l-1.7-3.5c-6.8-13.7-20.2-22.7-35.1-24.2c-2.9-15.5-10.5-57.5-11.8-77.4c-0.7-11.4,2-22.6,7.9-32.4
		c9.3-15.5,12.4-33.8,8.6-51.4l-13.8-64.7c-1.7-7.9-2-16.1-0.8-24.1c1.7-12,11.7-21.1,23.7-21.8l51.7-2.9c0.2,0,0.4,0,0.6-0.1
		c14.9-2,26.1-11.9,33.3-29.4l2.1-5.1C491.7,144.6,488.2,134.2,480,129.3L480,129.3z M286.9,187.3L361,218
		c-0.3,6.4,0.1,12.8,1.2,19.1c0,0,0,0,0,0l-84.6-35c0-0.1,0.1-0.2,0.1-0.2C278.9,200.1,285.2,190.1,286.9,187.3
		C286.9,187.3,286.9,187.3,286.9,187.3z M376.6,304.7c3,13.9,0.6,28.3-6.8,40.5c-7.5,12.4-11,26.7-10.1,41.2
		c1.6,25.5,12.7,82.8,13.2,85.2c0.7,3.7,4,6.2,7.7,6.1c11.6-0.6,22.4,5.8,27.6,16.1l1.6,3.1h-56.6c-0.5,0-0.9-0.3-1-0.8l-43.2-139.5
		c0,0,0,0,0-0.1c-1.2-3.9-5.4-6.1-9.4-4.9c-4,1.2-6.2,5.4-5,9.4c0.2,0.5,10.9,36.6-5.4,65.6c-10.7,19.1-32.2,25.2-48.4,27.1
		c-4,0.4-6.9,4-6.7,8c0.3,4,3.6,7.1,7.6,7l22.7-0.4c16.1-0.3,31.2,8.2,39.3,22l1.4,2.3c0.7,1.2,0.3,2.3,0,2.8
		c-0.3,0.5-1,1.4-2.5,1.4H151.1c-6.2,0-12.1-1.8-17.1-5.2c-12.5-8.5-19.9-22.6-19.9-37.8v-27.8c0-27.5,7-54.8,20.2-78.8
		c13.2-24.1,32.5-44.6,55.6-59.4c30.7-19.5,57.3-44.5,78.8-73.3l97.2,40.3L376.6,304.7z"/>
</g>
</svg>
