<?xml version="1.0" encoding="utf-8"?>
<!-- Generator: Adobe Illustrator 27.7.0, SVG Export Plug-In . SVG Version: 6.00 Build 0)  -->
<svg version="1.1" id="Capa_1" xmlns="http://www.w3.org/2000/svg" xmlns:xlink="http://www.w3.org/1999/xlink" x="0px" y="0px"
	 viewBox="0 0 477.9 477.9" style="enable-background:new 0 0 477.9 477.9;" xml:space="preserve">
<style type="text/css">
	.st0{fill:#FFFFFF;}
</style>
<g>
	<g>
		<path class="st0" d="M472.2,4.3c-3.6-3.2-8.4-4.8-13.3-4.2L151.7,34.2c-8.6,1-15.2,8.3-15.2,17v304.1c-15.5-9.2-33.2-14.1-51.2-14
			C38.3,341.3,0,371.9,0,409.6s38.3,68.3,85.3,68.3s85.3-30.6,85.3-68.3V151.9l273.1-30.4v199.7c-15.5-9.2-33.2-14-51.2-13.9
			c-47.1,0-85.3,30.6-85.3,68.3s38.3,68.3,85.3,68.3s85.3-30.6,85.3-68.3V17.1C477.9,12.2,475.8,7.6,472.2,4.3z M85.3,443.7
			c-27.8,0-51.2-15.6-51.2-34.1s23.5-34.1,51.2-34.1s51.2,15.6,51.2,34.1S113.1,443.7,85.3,443.7z M392.5,409.6
			c-27.8,0-51.2-15.6-51.2-34.1s23.5-34.1,51.2-34.1s51.2,15.6,51.2,34.1S420.3,409.6,392.5,409.6z M443.7,87.1l-273.1,30.3V66.6
			l273.1-30.4V87.1z"/>
	</g>
</g>
</svg>
