<?xml version="1.0" encoding="utf-8"?>
<!-- Generator: Adobe Illustrator 27.7.0, SVG Export Plug-In . SVG Version: 6.00 Build 0)  -->
<svg version="1.1" id="Layer_5" xmlns="http://www.w3.org/2000/svg" xmlns:xlink="http://www.w3.org/1999/xlink" x="0px" y="0px"
	 viewBox="0 0 512 512" style="enable-background:new 0 0 512 512;" xml:space="preserve">
<style type="text/css">
	.st0{fill:#FFFFFF;}
</style>
<path class="st0" d="M492.8,393.6C500,384,504,372,504,360V256c0-13.2-10.8-24-24-24c-3.2,0-6.2,0.6-8.9,1.8
	c-2.8-10.2-12-17.8-23.1-17.8c-6.2,0-11.7,2.4-16,6.2c-4.3-3.8-9.8-6.2-16-6.2c-2.8,0-5.5,0.6-8,1.5v-36.1c2.9-1.3,6.1-2.9,9.4-4.6
	l18.8,10.7l31.3-31.3l-10.8-18.9c0.8-1.8,1.6-3.6,2.3-5.5l21-5.7V81.9l-21-5.7c-0.7-1.8-1.5-3.7-2.3-5.5l10.8-18.9l-31.3-31.3
	l-18.9,10.8c-1.8-0.8-3.6-1.6-5.5-2.3l-5.7-21h-44.2l-5.7,21c-1.8,0.7-3.7,1.4-5.5,2.3l-18.9-10.8l-31.3,31.3l10.8,18.9
	c-0.8,1.8-1.6,3.6-2.3,5.5l-21,5.7V96h-48c-13.2,0-24,10.8-24,24v16.5c-2.6-0.3-5.3-0.5-8-0.5s-5.4,0.2-8,0.5V96
	c0-13.2-10.8-24-24-24h-24.5C147.5,36.1,117,8,80,8C40.3,8,8,40.3,8,80s32.3,72,72,72c37,0,67.5-28.1,71.5-64H176c4.4,0,8,3.6,8,8
	v44.2c-14.7,5.2-27.3,15-35.8,27.8H48c-22.1,0-40,17.9-40,40v160c0,22.1,17.9,40,40,40h64v16h-8c-17.6,0-32,14.4-32,32
	c0,8.8,7.2,16,16,16h176c8.8,0,16-7.2,16-16c0-17.6-14.4-32-32-32h-8v-16h64c9.8,0,19-3.7,26.2-10l5.8,11.9V424h-16v80h176v-80h-16
	v-13.3L492.8,393.6z M45.4,124c7.1-12.3,20.1-20,34.6-20s27.5,7.7,34.6,20C105,131.5,93,136,80,136S55,131.5,45.4,124z M64,72
	c0-8.8,7.2-16,16-16s16,7.2,16,16s-7.2,16-16,16S64,80.8,64,72z M125.8,112.1c-5.7-8.2-13.2-14.7-22.1-18.8
	c5.1-5.7,8.3-13.1,8.3-21.3c0-17.6-14.4-32-32-32S48,54.4,48,72c0,8.2,3.2,15.6,8.3,21.3c-8.9,4.1-16.4,10.6-22.1,18.8
	C27.8,103,24,91.9,24,80c0-30.9,25.1-56,56-56s56,25.1,56,56C136,91.9,132.2,103,125.8,112.1z M283.4,263.2l8.2,12.4
	c1.9,2.9,3.4,6,4.4,9.4V360H56V216h80.5c4,35.9,34.5,64,71.5,64s67.5-28.1,71.5-64H296v16.1c-9.1,2-16,10.1-16,19.8
	C280,256,281.2,259.8,283.4,263.2L283.4,263.2z M192,200c0-8.8,7.2-16,16-16s16,7.2,16,16s-7.2,16-16,16S192,208.8,192,200z
	 M208,232c14.5,0,27.5,7.7,34.6,20c-9.5,7.5-21.5,12-34.6,12s-25-4.5-34.6-12C180.5,239.7,193.5,232,208,232L208,232z M296,200
	h-16.5c-0.6-5.6-1.9-10.9-3.7-16H304c13.2,0,24,10.8,24,24v32c-4.9-3.1-10.2-5.4-16-6.8V216C312,207.2,304.8,200,296,200L296,200z
	 M336.5,184.8l14.1-8c3.2,1.7,6.5,3.3,9.4,4.6v114.7c0,3.6-0.8,7.3-2.4,10.6l-6.7-33.6c-1.2-6.2-3.6-12-6.9-17.1h0v-48
	C344,199.3,341.2,191.4,336.5,184.8L336.5,184.8z M364.9,129.6c-8-6-12.9-15.3-12.9-25.6c0-17.6,14.4-32,32-32s32,14.4,32,32
	c0,10.3-4.9,19.7-12.9,25.6c-4.4-5.8-11.3-9.6-19.1-9.6C376.2,120,369.3,123.8,364.9,129.6z M304,94.1l17.5-4.8l1.3-4.2
	c1.2-3.7,2.7-7.4,4.6-11l2.1-3.9l-9-15.8l14-14l15.8,9l3.9-2.1c3.6-1.9,7.3-3.4,11-4.6l4.2-1.3l4.8-17.5h19.8l4.8,17.5l4.2,1.3
	c3.7,1.1,7.4,2.7,11,4.6l3.9,2l15.8-9l14,14l-9,15.8l2.1,3.9c1.9,3.6,3.4,7.2,4.6,11l1.3,4.2l17.5,4.8v19.8l-17.5,4.8l-1.3,4.2
	c-1.2,3.7-2.7,7.4-4.6,11l-2.1,3.9l9,15.8l-14,14l-15.8-9l-3.9,2c-2.2,1.1-4.1,2.1-5.9,3v-18.1c14.7-8.5,24-24.2,24-41.5
	c0-26.5-21.5-48-48-48s-48,21.5-48,48c0,17.3,9.3,33,24,41.5v18.1c-1.7-0.9-3.6-1.8-5.8-3l-3.9-2.1l-15.8,9l-14-14l9-15.8l-2.1-3.9
	c-1.9-3.6-3.4-7.2-4.6-11l-1.3-4.2l-17.6-4.8V94.1z M232,120c0-4.4,3.6-8,8-8h48v14.1l21,5.7c0.7,1.8,1.5,3.7,2.3,5.5l-10.8,18.9
	l13,13c-3.1-0.8-6.2-1.3-9.5-1.3h-36.2c-8.6-12.8-21.1-22.6-35.8-27.8L232,120z M208,152c30.9,0,56,25.1,56,56
	c0,11.9-3.8,23-10.2,32.1c-5.7-8.2-13.2-14.7-22.1-18.8c5.1-5.7,8.3-13.1,8.3-21.3c0-17.6-14.4-32-32-32s-32,14.4-32,32
	c0,8.2,3.2,15.6,8.3,21.3c-8.9,4.1-16.4,10.6-22.1,18.8C155.8,231,152,219.9,152,208C152,177.1,177.1,152,208,152z M264,456l-176,0
	v0c0-8.8,7.2-16,16-16h144C256.8,440,264,447.2,264,456z M224,424h-96v-16h96V424z M304,392H48c-13.2,0-24-10.8-24-24V208
	c0-13.2,10.8-24,24-24h92.2c-1.8,5.1-3.1,10.4-3.7,16H56c-8.8,0-16,7.2-16,16v144c0,8.8,7.2,16,16,16h240c8.7,0,15.7-7,16-15.6
	l10.7,22.1C318.2,388.3,311.4,392,304,392L304,392z M480,488H336v-48h144V488z M352,424v-17.8L323.7,348c-2.6-4.6-4.3-9.6-5-14.9
	l-5.5-44.3c-1-7.9-3.8-15.6-8.3-22.2l-8.2-12.4c-0.5-0.7-0.7-1.5-0.7-2.4c0-2.4,1.9-4.3,4.3-4.3c16.9,0,31.6,12,34.9,28.6l10.3,51.4
	h19.5l6.8-13.7c2.8-5.5,4.2-11.7,4.2-17.9V144c0-4.4,3.6-8,8-8s8,3.6,8,8v96v32h16v-32c0-4.4,3.6-8,8-8s8,3.6,8,8v32h16v-32
	c0-4.4,3.6-8,8-8s8,3.6,8,8v16v16h16v-16c0-4.4,3.6-8,8-8s8,3.6,8,8v104c0,8.6-2.8,17.1-8,24l-16,21.3V424L352,424z"/>
<path class="st0" d="M248,296h-16v32h-16v-16h-16v16h-16v-32h-16v32h-16v-64h-16v64h-16v-80h-16v80H88v-96H72v112h192v-16h-16V296z"
	/>
</svg>
