<?xml version="1.0" encoding="utf-8"?>
<!-- Generator: Adobe Illustrator 27.7.0, SVG Export Plug-In . SVG Version: 6.00 Build 0)  -->
<svg version="1.1" id="Capa_1" xmlns="http://www.w3.org/2000/svg" xmlns:xlink="http://www.w3.org/1999/xlink" x="0px" y="0px"
	 viewBox="0 0 442.9 445.7" style="enable-background:new 0 0 442.9 445.7;" xml:space="preserve">
<style type="text/css">
	.st0{fill:#FFFFFF;}
</style>
<g>
	<path class="st0" d="M371.3,80c-4.2,0-7.3,0.2-10.4-0.1c-3.1-0.3-4.8-2.3-5-5.4c-0.2-3.3,1.3-6.1,4.4-6.2c8.6-0.2,17.3,0.3,26,0.5
		c4.3,0.1,5.3,3.2,5.4,6.4c0.2,7.5,0.1,15,0,22.5c-0.1,3.4-3.2,6.4-6.4,6.4c-3.3,0-5.5-2.5-5.6-6.4c-0.1-2.7,0-5.5,0-9.1
		c-1.2,1-2.1,1.5-2.8,2.2c-6.4,6.3-12.5,12.9-19.1,19c-13.7,12.7-27.1,25.7-41.5,37.6c-16.1,13.4-33.6,25-51.9,35.4
		c-25.6,14.7-52.6,26.4-80.9,34.5c-15.4,4.4-31.1,7.8-46.8,11c-10.7,2.2-21.6,3.4-32.5,4.6c-9.9,1.1-19.8,1.7-29.7,2.2
		c-7.9,0.5-15.8,0.6-23.8,0.8c-4.1,0.1-6.4-2.2-6.4-5.9c0-3.8,2.2-6,6.3-6c4.6-0.1,9.2,0.1,13.8,0c10-0.4,20-0.4,29.9-1.6
		c21.8-2.6,43.5-5.5,64.9-10.8c23.1-5.8,45.6-13.1,67.3-22.8c26.7-12,51.9-26.8,74.9-45c10.3-8.1,20.3-16.6,30-25.5
		c11.4-10.5,22.3-21.7,33.5-32.5C366.9,83.8,368.8,82.3,371.3,80z"/>
	<path class="st0" d="M337.9,277.5c0-29.8,0.1-59.6,0-89.5c0-9.1,5.6-16.5,14.9-17.8c6.5-0.9,13.5-0.6,19.9,0.8
		c9,2,12.7,8.4,13,17.2c0.5,13.6,0.2,27.2,0.1,40.8c0,3.7-3,6.7-6.4,6.8c-3.4,0-5.6-2.5-5.6-6.8c0-13.1,0-26.2,0-39.3
		c0-5.2-2.6-7.8-7.6-7.8c-3.5,0-7-0.1-10.5,0c-3.6,0.1-5.6,2.2-5.8,5.8c-0.1,0.9,0,1.7,0,2.6c0,58.3,0,116.6-0.1,174.8
		c0,5.4,1.2,9,8.5,8.5c2.6-0.2,5.2,0,7.9,0c5.1,0,7.6-2.6,7.6-7.8c0-26.1,0-52.2,0-78.2c0-1,0-2,0-3c0.1-4.3,2.1-6.8,5.6-6.8
		c3.4,0,6.4,3,6.4,6.7c0,27.7,0.3,55.4-0.1,83.1c-0.1,10.8-8.4,18.1-18.6,17.9c-5.7-0.1-11.5,0.3-17-0.9
		c-7.6-1.7-12.3-9.7-12.3-16.6C338,337.9,337.9,307.7,337.9,277.5z"/>
	<path class="st0" d="M266.1,301.7c0-24,0-47.9,0-71.9c0-9.2,5.8-16.4,15-17.7c6.4-0.9,13.3-0.7,19.6,0.7c9,2,13.2,8.3,13.2,17.4
		c0.3,47.7,0.3,95.4,0,143c-0.1,11-8.4,18.5-18.7,18.3c-5.5-0.1-11.2,0.2-16.6-0.9c-7.8-1.5-12.7-10.1-12.6-16.7
		C266.2,349.9,266.1,325.8,266.1,301.7z M278,301.8c0,9,0,18,0,26.9c0,14.7,0,29.4,0,44.1c0,4.8,2,6.7,6.7,6.8c3,0,6,0,9,0
		c5.9,0,8.2-2.4,8.2-8.3c0-24.9,0-49.9,0-74.8c0-21.7,0-43.4,0-65.1c0-4.9-2.6-7.5-7.5-7.5c-2.9,0-5.7,0-8.6,0
		c-6.2,0-7.8,1.7-7.8,7.9C278,255.1,278,278.4,278,301.8z"/>
	<path class="st0" d="M133.1,44.9c34.8-0.7,57.8,24.9,60.5,51.4c4.4,43.4-29.7,68.8-63.3,67.7c-29.3-1-57.9-26.7-55.8-64.3
		C76.1,71.7,97.9,44.1,133.1,44.9z M133.5,152c26.4,0.5,47.7-20.7,48.6-45.5c1-29.3-21-50-48-50.2c-26.9-0.2-45.8,20.3-47.7,44.7
		C84.2,129.5,108.5,152.6,133.5,152z"/>
	<path class="st0" d="M194.2,319.4c0-17.8,0.1-35.7,0-53.5c0-9.2,5.7-16.5,15-17.7c6.5-0.9,13.5-0.6,19.9,0.8
		c9,2,12.8,8.5,12.9,17.2c0.3,35.7,0.3,71.4,0,107.1c-0.1,11-8.3,18.5-18.6,18.3c-5.5-0.1-11.2,0.2-16.6-0.9
		c-7.9-1.5-12.7-10.1-12.6-16.7C194.3,355.8,194.2,337.6,194.2,319.4z M206.2,319.8c0,17.7,0,35.4,0,53.1c0,4.8,2,6.7,6.7,6.7
		c3.4,0,6.7,0.1,10.1,0c4.4-0.1,7-2.8,7.1-7.2c0-3.6,0-7.2,0-10.8c0-31.3,0-62.6,0-93.9c0-5.4-2.5-7.8-7.9-7.9c-2.9,0-5.7,0-8.6,0
		c-5.7,0-7.4,1.8-7.4,7.6C206.1,284.8,206.2,302.3,206.2,319.8z"/>
	<path class="st0" d="M122.3,337.4c0-11.9,0.1-23.7,0-35.6c-0.1-9.2,5.7-16.5,15-17.7c6.5-0.9,13.5-0.6,19.9,0.8
		c9,2,12.8,8.5,12.9,17.2c0.4,23.7,0.3,47.4,0,71.1c-0.1,11-8.3,18.5-18.6,18.3c-5.7-0.1-11.5,0.3-17-0.9
		c-7.6-1.7-12.4-9.7-12.3-16.6C122.5,361.8,122.3,349.6,122.3,337.4z M134.3,337.7c0,11.7,0,23.4,0,35.1c0,4.8,2,6.7,6.7,6.8
		c3.5,0,7,0.1,10.5,0c3.8-0.1,6.7-2.9,6.8-6.8c0-23.4,0-46.9,0-70.3c0-3.8-2.9-6.7-6.7-6.8c-3.4-0.1-6.7,0-10.1,0
		c-5.2,0-7.1,1.9-7.1,7.1C134.3,314.5,134.3,326.1,134.3,337.7z"/>
	<path class="st0" d="M50.4,355.4c0-5.9,0.1-11.7,0-17.6c-0.2-9.1,5.6-16.5,14.9-17.8c6.5-0.9,13.5-0.6,19.9,0.8
		c9,2,12.6,8.5,13,17.2c0.5,11.7,0.4,23.5,0,35.2c-0.3,11-8.3,18.5-18.6,18.4c-5.7-0.1-11.5,0.3-17-0.9c-7.7-1.7-12.5-9.8-12.3-16.6
		C50.6,367.9,50.4,361.6,50.4,355.4z M62.4,355.7c0,6-0.1,12,0,17.9c0.1,3.9,2.1,5.9,5.9,6c3.7,0.1,7.5,0.1,11.2,0
		c3.8-0.1,6.7-2.9,6.7-6.8c0.1-11.5,0.1-22.9,0-34.4c0-3.8-2.9-6.7-6.7-6.8c-3.5-0.1-7,0-10.5,0c-4.7,0-6.7,2-6.7,6.8
		C62.4,344.2,62.4,349.9,62.4,355.7z"/>
	<path class="st0" d="M386.7,257.2c-1.2,2.4-2,5.2-3.7,7c-1.1,1.1-4,1.6-5.5,0.9c-1.6-0.6-3-2.8-3.5-4.6c-0.6-2.1-0.2-4.4-0.2-6.7
		c0.1-3.5,2.1-5.8,5.1-6c3-0.2,6.3,2.5,6.8,5.5c0.2,1.1,0,2.2,0,3.3C386.1,256.9,386.4,257,386.7,257.2z"/>
	<path class="st0" d="M140.3,80.1c2.3,0,4-0.1,5.8,0c3,0.2,6.1,3.2,6.2,5.8c0.1,2.8-3,6-6.3,6.1c-4.2,0.1-8.5,0-12.7,0
		c-2.3,0-4.7-0.3-4.9,3c-0.1,3.5,2.4,3,4.6,3c4.9,0,9.6,0.3,13.7,3.7c9.6,8,5.4,22.8-6.4,25.8c0,2.1,0.1,4.2,0,6.3
		c-0.2,3.3-3.5,6.2-6.6,6.1c-3.2-0.1-5.2-2.5-5.3-6.3c-0.1-1.7,0-3.5,0-5.7c-2.2,0-4.3,0.1-6.3,0c-3.5-0.2-5.6-2.4-5.6-6
		c0-3.5,2.1-5.8,5.7-5.9c4.5-0.1,9-0.1,13.5,0c2.3,0,4.6-0.6,4.6-3c0-2.4-2.2-3.2-4.5-3c-5.6,0.3-11,0-15.2-4.5
		c-7.3-7.7-4.7-20.7,5.5-24.4c2.2-0.8,2.6-1.8,2.5-3.6c0-1,0-2,0-3c0.1-3.8,2.2-6.2,5.3-6.3c3.1-0.1,6.4,2.8,6.6,6.1
		C140.4,76.1,140.3,77.9,140.3,80.1z"/>
</g>
</svg>
