<?xml version="1.0" encoding="utf-8"?>
<!-- Generator: Adobe Illustrator 27.7.0, SVG Export Plug-In . SVG Version: 6.00 Build 0)  -->
<svg version="1.1" id="svg31911" xmlns:svg="http://www.w3.org/2000/svg"
	 xmlns="http://www.w3.org/2000/svg" xmlns:xlink="http://www.w3.org/1999/xlink" x="0px" y="0px" viewBox="0 0 512 512"
	 style="enable-background:new 0 0 512 512;" xml:space="preserve">
<style type="text/css">
	.st0{fill:#FFFFFF;}
</style>
<g id="layer1" transform="translate(0 -280.067)">
	<path id="path13211" vector-effect="none" class="st0" d="M460.4,296.9l-80,40c-2.7,1.4-4.4,4.1-4.4,7.2v28.7l-192,192l-10.3-10.3
		c-3.2-3.2-8.1-3.2-11.3,0l-24,24c-5.2,5.3-1.4,10,1,12.4l57.3,57.3l-99.6,99.6c-16,16-40.2,16.5-54.7,2c-14.5-14.5-14-38.7,2-54.7
		l77.6-77.7c8.8-7.5-3.8-20-11.3-11.3l-77.7,77.6c-21.7,21.7-23,56.3-2,77.3c21,21,55.6,19.7,77.3-2l129.3-129.3
		c3.1-3.1,3.1-8.2,0-11.3L227.3,608l192-192H448c3,0,5.8-1.7,7.1-4.4l40-80c1.5-3.1,0.9-6.8-1.5-9.2l-24-24
		C467.6,296.3,464,295.1,460.4,296.9L460.4,296.9z M72,296.1c-7.1,0-10.7,8.6-5.7,13.7l53.7,53.7v17.4l-19.3,19.3H83.3l-53.7-53.7
		c-5-5-13.7-1.5-13.7,5.7v64c0,2.1,0.8,4.2,2.3,5.7l40,40c1.5,1.5,3.5,2.3,5.7,2.3h60.7l63,63c7.5,7.9,19.2-3.8,11.3-11.3
		l-65.4-65.4c-1.5-1.5-3.5-2.3-5.7-2.3H67.3L32,412.7v-41.4l42.3,42.3c1.5,1.5,3.5,2.3,5.7,2.3h24c2.1,0,4.2-0.8,5.7-2.3l24-24
		c1.5-1.5,2.3-3.5,2.3-5.7v-24c0-2.1-0.8-4.2-2.3-5.7l-42.3-42.3h41.4l35.3,35.3v60.7c0,2.1,0.8,4.2,2.3,5.7l65.4,65.4
		c7.5,7.9,19.2-3.8,11.3-11.3l-63-63v-60.7c0-2.1-0.8-4.2-2.3-5.7l-40-40c-1.5-1.5-3.5-2.3-5.7-2.3L72,296.1z M462.4,313.8
		l15.9,15.8L443,400.1h-27c-2.1,0-4.2,0.8-5.7,2.3L216,596.7L195.4,576l194.3-194.3c1.5-1.5,2.4-3.5,2.4-5.7v-27L462.4,313.8z
		 M318.6,542.6c-7.2,0-10.7,8.7-5.6,13.7l65.4,65.4c1.5,1.5,3.5,2.3,5.7,2.3h60.7l35.3,35.3v41.4l-42.3-42.3
		c-1.5-1.5-3.5-2.3-5.7-2.3h-24c-2.1,0-4.2,0.8-5.7,2.3l-24,24c-1.5,1.5-2.3,3.5-2.3,5.7v24c0,2.1,0.8,4.2,2.3,5.7l42.3,42.3h-41.4
		L344,724.7v-60.7c0-2.1-0.8-4.2-2.3-5.7L276.3,593c-7.5-7.9-19.2,3.8-11.3,11.3l63,63v60.7c0,2.1,0.8,4.2,2.3,5.7l40,40
		c1.5,1.5,3.5,2.3,5.7,2.3h64c7.1,0,10.7-8.6,5.7-13.7L392,708.7v-17.4l19.3-19.3h17.4l53.7,53.7c5,5,13.7,1.5,13.7-5.7v-64
		c0-2.1-0.8-4.2-2.3-5.7l-40-40c-1.5-1.5-3.5-2.3-5.7-2.3h-60.7l-63-63C322.8,543.5,320.7,542.6,318.6,542.6L318.6,542.6z
		 M168.1,571.4l52.7,52.7L208,636.8l-52.7-52.7L168.1,571.4z"/>
</g>
</svg>
