<?xml version="1.0" encoding="utf-8"?>
<!-- Generator: Adobe Illustrator 27.7.0, SVG Export Plug-In . SVG Version: 6.00 Build 0)  -->
<svg version="1.1" id="Capa_1" xmlns="http://www.w3.org/2000/svg" xmlns:xlink="http://www.w3.org/1999/xlink" x="0px" y="0px"
	 viewBox="0 0 480 480" style="enable-background:new 0 0 480 480;" xml:space="preserve">
<style type="text/css">
	.st0{fill:#FFFFFF;}
</style>
<path class="st0" d="M118.1,257.4c3,4.2,7.8,6.6,13,6.6H176c3,0,5.8-1.7,7.2-4.4l5.8-11.6h6.1l13.8,27.6c1.4,2.7,4.1,4.4,7.2,4.4h48
	c3,0,5.8-1.7,7.2-4.4l13.7-27.6h6.1l5.8,11.6c1.4,2.7,4.1,4.4,7.2,4.4h44.9c5.1,0,10-2.5,13-6.6c3-4.2,3.8-9.5,2.2-14.4l-24.9-74.5
	c-3.3-9.8-12.4-16.4-22.7-16.4H312v-43.3c-0.1-33.7-14.2-65.9-39.1-88.7C253.5,2.3,245.1,0,240,0s-13.5,2.3-32.9,20
	C182.2,42.8,168,74.9,168,108.7V152h-4.5c-10.3,0-19.5,6.6-22.7,16.4l-24.9,74.5C114.3,247.8,115.1,253.2,118.1,257.4z M259.1,264
	h-38.1l-8-16h54.1L259.1,264z M316.5,168c3.4,0,6.5,2.2,7.6,5.5l24.8,74.5h-39.9l-2.1-4.3c3.3-3,5.2-7.3,5.2-11.7v-64H316.5z
	 M184,108.7c0.1-29.2,12.4-57.1,33.9-76.8C234.6,16.6,239.8,16,240,16s5.4,0.6,22.1,15.8c21.5,19.8,33.8,47.6,33.9,76.8V232h-48v-56
	h-16v56h-48V108.7z M155.9,173.5c1.1-3.3,4.1-5.5,7.6-5.5h4.5v64c0,4.5,1.9,8.7,5.2,11.7l-2.1,4.3h-39.9L155.9,173.5z"/>
<path class="st0" d="M240,120c-4.4,0-8-3.6-8-8h-16c0,10.1,6.4,19.1,16,22.5v9.5h16v-9.5c11-3.9,17.6-15.1,15.6-26.6
	c-2-11.5-12-19.9-23.6-19.9c-4.4,0-8-3.6-8-8s3.6-8,8-8s8,3.6,8,8h16c0-10.1-6.4-19.1-16-22.5V48h-16v9.5
	c-11,3.9-17.6,15.1-15.6,26.6c2,11.5,12,19.9,23.6,19.9c4.4,0,8,3.6,8,8S244.4,120,240,120z"/>
<path class="st0" d="M232,336h16v16h-16V336z"/>
<path class="st0" d="M192,344c0,36.1,42.1,61.8,43.9,62.9c2.5,1.5,5.7,1.5,8.2,0c1.8-1.1,43.9-26.7,43.9-62.9c0-26.5-21.5-48-48-48
	S192,317.5,192,344z M272,344c0,21.4-22.5,39.7-32,46.4c-9.5-6.7-32-24.9-32-46.4c0-17.7,14.3-32,32-32S272,326.3,272,344z"/>
<path class="st0" d="M320,280h-16c0,30.9,25.1,56,56,56v-16C337.9,320,320,302.1,320,280z"/>
<path class="st0" d="M120,320v16c30.9,0,56-25.1,56-56h-16C160,302.1,142.1,320,120,320z"/>
<path class="st0" d="M376,320h16v16h-16V320z"/>
<path class="st0" d="M88,320h16v16H88V320z"/>
<path class="st0" d="M360,56h16v48h-16V56z"/>
<path class="st0" d="M360,120h16v16h-16V120z"/>
<path class="st0" d="M416,104h16v48h-16V104z"/>
<path class="st0" d="M416,168h16v16h-16V168z"/>
<path class="st0" d="M104,56h16v48h-16V56z"/>
<path class="st0" d="M104,120h16v16h-16V120z"/>
<path class="st0" d="M48,104h16v48H48V104z"/>
<path class="st0" d="M48,168h16v16H48V168z"/>
<path class="st0" d="M435.7,464c12.7-14.1,15.9-34.3,8.2-51.6c-7.7-17.3-24.9-28.4-43.8-28.4c-0.9,0-1.8,0-2.7,0.1
	c-6.9-19.6-25.6-32.5-46.4-32S312,366.3,306,386.3c-7.4-3.5-16.1-2.9-23,1.5c-6.9,4.4-11.1,12.1-11,20.2h16c0-4.4,3.6-8,8-8
	s8,3.6,8,8c0,0.5,0,0.9-0.1,1.4c-0.3,3,1.1,6,3.6,7.6c2.6,1.6,5.8,1.7,8.4,0.1c1.2-0.7,2.6-1.1,4-1.1c4.4,0,8,3.6,8,8s-3.6,8-8,8v16
	c13.2,0,24-10.7,24-24c0-13.2-10.7-23.9-24-23.9V400c0-16.5,12.7-30.3,29.2-31.8s31.4,9.9,34.3,26.1c0.4,2.2,1.6,4.1,3.5,5.3
	c1.8,1.2,4.1,1.6,6.2,1.1c2.2-0.5,4.5-0.8,6.8-0.7c17.7,0,32,14.3,32,32s-14.3,32-32,32H80c-17.7,0-32-14.3-32-32s14.3-32,32-32
	c2.3,0,4.6,0.2,6.9,0.8c2.1,0.5,4.4,0.1,6.2-1.1c1.8-1.2,3.1-3.1,3.5-5.3c3-16.3,17.8-27.6,34.3-26.1c16.5,1.5,29.1,15.2,29.2,31.8
	v0.1c-8.7-0.2-16.7,4.4-21.1,11.8c-4.4,7.5-4.4,16.7,0,24.2c4.4,7.5,12.4,12,21.1,11.8v-16c-4.4,0-8-3.6-8-8s3.6-8,8-8
	c1.4,0,2.8,0.4,4,1.1c2.6,1.6,5.9,1.5,8.4-0.1c2.6-1.6,4-4.6,3.6-7.6c-0.1-0.4-0.1-0.9-0.1-1.3c0-4.4,3.6-8,8-8s8,3.6,8,8h16
	c0-8.2-4.1-15.8-11-20.2c-6.9-4.4-15.6-5-23-1.5c-6-19.9-24.1-33.7-44.8-34.2c-20.8-0.5-39.5,12.4-46.4,32.1
	c-0.9-0.1-1.8-0.1-2.7-0.1c-18.9,0-36.1,11.1-43.8,28.4c-7.7,17.3-4.5,37.5,8.2,51.6H0v16h480v-16H435.7z"/>
</svg>
