<?xml version="1.0" encoding="utf-8"?>
<!-- Generator: Adobe Illustrator 27.7.0, SVG Export Plug-In . SVG Version: 6.00 Build 0)  -->
<svg version="1.1" id="svg405" xmlns:svg="http://www.w3.org/2000/svg"
	 xmlns="http://www.w3.org/2000/svg" xmlns:xlink="http://www.w3.org/1999/xlink" x="0px" y="0px" viewBox="0 0 682.7 682.7"
	 style="enable-background:new 0 0 682.7 682.7;" xml:space="preserve">
<style type="text/css">
	.st0{fill:#FFFFFF;}
</style>
<g id="g411" transform="matrix(1.3333333,0,0,-1.3333333,0,682.66667)">
	<g id="g413">
		<g>
			<g id="g415">
				<g id="g421" transform="translate(371.0002,504.5)">
					<g id="path423">
						<path class="st0" d="M-153.8-146c-4.1,0-7.5,3.4-7.5,7.5v89.9c0,30.9,25.2,56.1,56.2,56.1H0c4.1,0,7.5-3.4,7.5-7.5
							S4.1-7.5,0-7.5h-105.1c-22.7,0-41.2-18.4-41.2-41.1v-89.9C-146.3-142.6-149.7-146-153.8-146z"/>
					</g>
				</g>
				<g id="g425" transform="translate(237.3388,242.9986)">
					<g id="path427">
						<path class="st0" d="M119.8-61c-1.1,0-2.3,0.3-3.3,0.8c-2.6,1.3-4.2,3.9-4.2,6.7v36.8H28.6c-11.9,0-23.3,3.7-33,10.6
							C-7.8-3.7-8.5,1-6.1,4.4C-3.7,7.8,1,8.5,4.4,6.1C11.5,1,19.8-1.7,28.6-1.7h91.3c4.1,0,7.5-3.4,7.5-7.5v-29.1l45.8,35
							c1.3,1,2.9,1.5,4.6,1.5h25c22.7,0,41.2,18.4,41.2,41.1v173.6c0,22.6-18.5,41.1-41.2,41.1h-22c-4.1,0-7.5,3.4-7.5,7.5
							s3.4,7.5,7.5,7.5h22c31,0,56.2-25.2,56.2-56.1V39.4c0-30.9-25.2-56.1-56.2-56.1h-22.4l-55.8-42.7
							C123.1-60.5,121.5-61,119.8-61z"/>
					</g>
				</g>
				<g id="g429" transform="translate(315.4131,304.9772)">
					<g id="path431">
						<path class="st0" d="M104.5-21.5H33.2c-11.9,0-23.6,4.1-32.9,11.6l-5,4.1C-7.9-3.2-8.4,1.5-5.8,4.7c2.6,3.2,7.3,3.7,10.5,1.1
							l5-4.1c6.6-5.3,14.9-8.3,23.4-8.3h71.3c1.2,0,2.3,0.5,3.2,1.4c0.5,0.5,1.3,1.6,1.2,3.3c-0.2,4.6-0.1,32,0,61
							c0,5.3,0,9.1,0,10.6c0,2.4-2,4.4-4.4,4.4l-48.4,0.1c-2.5,0-4.8,1.3-6.2,3.4c-1.4,2.1-1.6,4.7-0.7,7.1l5.9,14
							c5.2,12.3,4.4,26.6-2.3,38.3c0,0-0.1,0.2-0.3,0.2c-0.2,0-0.3,0-0.3,0c-0.1-0.1-0.2-0.2-0.2-0.4c0-14.4-5.2-28.3-14.8-39.1
							L6.4,62.7C3.7,59.6-1,59.3-4.1,62c-3.1,2.7-3.4,7.5-0.7,10.6L26,107.5c7.1,8.1,11,18.4,11,29.2c0,5.3,2.8,10.3,7.3,13.1
							c3.6,2.2,7.8,2.8,11.9,1.8c4.1-1,7.5-3.6,9.6-7.3c8.9-15.7,10.1-34.9,3.1-51.5l-1.5-3.6l37.1-0.1c10.7,0,19.4-8.7,19.4-19.4
							c0-1.4,0-5.3,0-10.6c-0.1-18-0.2-55.4,0-60.2c0.3-5.4-1.6-10.4-5.3-14.3C114.8-19.3,109.7-21.5,104.5-21.5z"/>
					</g>
				</g>
				<g id="path433">
					<path class="st0" d="M314.5,286.7h-40.3c-4.1,0-7.5,3.4-7.5,7.5V385c0,4.1,3.4,7.5,7.5,7.5h40.3c4.1,0,7.5-3.4,7.5-7.5v-90.8
						C322,290.1,318.6,286.7,314.5,286.7z M281.7,301.7H307v75.8h-25.3V301.7z"/>
				</g>
				<g id="g435" transform="translate(23.2673,270)">
					<g id="path437">
						<path class="st0" d="M113.8-156.7c-1.1,0-2.3,0.3-3.3,0.8c-2.6,1.3-4.2,3.9-4.2,6.7v27.7H38.4c-25.3,0-45.9,20.5-45.9,45.8V0
							c0,4.1,3.4,7.5,7.5,7.5S7.5,4.1,7.5,0v-75.7c0-17,13.9-30.8,30.9-30.8h75.4c4.1,0,7.5-3.4,7.5-7.5v-20l33.5,25.9
							c3.3,2.5,8,1.9,10.5-1.4c2.5-3.3,1.9-8-1.4-10.5l-45.6-35.2C117.1-156.2,115.5-156.7,113.8-156.7z"/>
					</g>
				</g>
				<g id="g439" transform="translate(236.2645,185)">
					<g id="path441">
						<path class="st0" d="M0-7.5c-0.6,0-1.2,0.1-1.8,0.2c-4,1-6.5,5.1-5.5,9.1c0.6,2.4,0.9,5,0.9,7.5v136.9
							c0,17-13.9,30.8-30.9,30.8h-137.3c-17.1,0-30.9-13.8-30.9-30.8V130c0-4.1-3.4-7.5-7.5-7.5s-7.5,3.4-7.5,7.5v16.2
							c0,25.3,20.6,45.8,45.9,45.8h137.3c25.3,0,45.9-20.5,45.9-45.8V9.3c0-3.8-0.5-7.5-1.4-11.1C6.4-5.2,3.4-7.5,0-7.5z"/>
					</g>
				</g>
				<g id="g443" transform="translate(79.9881,277.2979)">
					<g id="path445">
						<path class="st0" d="M100.7-7.5H0c-4.1,0-7.5,3.4-7.5,7.5S-4.1,7.5,0,7.5h100.7c4.1,0,7.5-3.4,7.5-7.5S104.8-7.5,100.7-7.5z"
							/>
					</g>
				</g>
				<g id="g447" transform="translate(79.9881,244.0018)">
					<g id="path449">
						<path class="st0" d="M100.7-7.5H0c-4.1,0-7.5,3.4-7.5,7.5S-4.1,7.5,0,7.5h100.7c4.1,0,7.5-3.4,7.5-7.5S104.8-7.5,100.7-7.5z"
							/>
					</g>
				</g>
				<g id="g451" transform="translate(155.3103,311)">
					<g id="path453">
						<path class="st0" d="M-16.6-108.2c-0.4,0-0.8,0-1.2,0.1c-4.1,0.7-6.9,4.5-6.2,8.6L-7.4,1.2c0.7,4.1,4.5,6.9,8.6,6.2
							c4.1-0.7,6.9-4.5,6.2-8.6L-9.2-101.9C-9.9-105.6-13-108.2-16.6-108.2z"/>
					</g>
				</g>
				<g id="g455" transform="translate(122.0143,311)">
					<g id="path457">
						<path class="st0" d="M-16.6-108.2c-0.4,0-0.8,0-1.2,0.1c-4.1,0.7-6.9,4.5-6.2,8.6L-7.4,1.2c0.7,4.1,4.5,6.9,8.6,6.2
							c4.1-0.7,6.9-4.5,6.2-8.6L-9.2-101.9C-9.9-105.6-13-108.2-16.6-108.2z"/>
					</g>
				</g>
				<g id="g459" transform="translate(339,120)">
					<g id="path461">
						<path class="st0" d="M-71.2-120c-1.1,0-2.3,0.3-3.3,0.8c-2.6,1.3-4.2,3.9-4.2,6.7V-95h-46c-19.2,0-34.8,15.6-34.8,34.7v97.1
							c0,19.1,15.6,34.7,34.8,34.7h97.4c19.2,0,34.8-15.6,34.8-34.7V0c0-4.1-3.4-7.5-7.5-7.5S-7.5-4.1-7.5,0v36.8
							c0,10.9-8.9,19.7-19.8,19.7h-97.4c-10.9,0-19.8-8.8-19.8-19.7v-97.1c0-10.9,8.9-19.7,19.8-19.7h53.5c4.1,0,7.5-3.4,7.5-7.5
							v-9.7l20.3,15.7c1.3,1,2.9,1.6,4.6,1.6h11.5c10.9,0,19.8,8.8,19.8,19.7V-47c0,4.1,3.4,7.5,7.5,7.5s7.5-3.4,7.5-7.5v-13.3
							C7.5-79.4-8.1-95-27.3-95h-9l-30.4-23.4C-67.9-119.5-69.5-120-71.2-120z"/>
					</g>
				</g>
				<g id="g463" transform="translate(263.0173,75.2472)">
					<g id="path465">
						<path class="st0" d="M0-7.5c-1.2,0-2.4,0.3-3.5,0.9C-27.3,6-43.1,18.6-43.1,39.4c0,16,10.5,25.6,20.8,28.2
							c8.1,2,16.1,0,22.2-5c5.8,4.7,13.6,6.6,21.6,4.8c10.7-2.4,21.5-12,21.5-28c0-20.8-15.8-33.4-39.6-46C2.4-7.2,1.2-7.5,0-7.5z
							 M-16.1,53.3c-0.9,0-1.8-0.1-2.6-0.3c-4.5-1.1-9.3-5.2-9.3-13.6c0-11.2,7.4-19.5,28.1-30.9c20.7,11.4,28.1,19.7,28.1,30.9
							c0,8.3-5.1,12.3-9.8,13.4c-4,0.9-9.1,0-11.5-5.2c-1.2-2.6-3.8-4.3-6.6-4.3c-2.9-0.1-5.5,1.5-6.8,4.1
							C-9,51.7-12.7,53.3-16.1,53.3z"/>
					</g>
				</g>
			</g>
		</g>
	</g>
</g>
</svg>
