<?xml version="1.0" encoding="utf-8"?>
<!-- Generator: Adobe Illustrator 27.7.0, SVG Export Plug-In . SVG Version: 6.00 Build 0)  -->
<svg version="1.1" id="Capa_1" xmlns="http://www.w3.org/2000/svg" xmlns:xlink="http://www.w3.org/1999/xlink" x="0px" y="0px"
	 viewBox="0 0 512 512" style="enable-background:new 0 0 512 512;" xml:space="preserve">
<style type="text/css">
	.st0{fill:#FFFFFF;}
</style>
<g>
	<path class="st0" d="M507.4,235.2c-3.6-4.2-8.9-6.6-14.4-6.6h-4.2c4.6-22,1.7-44.9-8.2-63.8c-5-9.6-14.7-15.7-25.4-16.1l1.1-13.1
		c0.8-9.7-2.6-19.4-9.2-26.6c-6.6-7.2-16-11.3-25.7-11.3h-35.6c-11.9,0-22.8,6-29.2,15.6c-6.9-10.1-18.5-16.4-30.9-16.4
		c-4.6,0-9.1,0.8-13.3,2.4c-6.6-5.2-14.7-8.1-23.2-8.1c-8.4,0-16.6,2.8-23.2,8.1c-4.2-1.6-8.7-2.4-13.3-2.4
		c-13.5,0-25.9,7.3-32.5,18.9l-33.2-8.5c-4.4-1.1-9.1-0.3-12.9,2.1c-3.8,2.5-6.4,6.4-7.2,10.9l-0.2,1.5c-6.5-0.6-13,0-19.3,1.8
		l-8.5-24.1c-3.8-10.7-13.1-18.3-24.3-19.9c-11.1-1.6-22.2,3-28.8,12.1c-8.7,12-14.4,26.2-16.6,41.5c0,0-0.1,0-0.1,0
		c-34.4,8.6-53.4,51.3-42.7,95.4H19c-5.5,0-10.8,2.4-14.4,6.6s-5.2,9.7-4.4,15.2l8.3,55.9c5.2,35.1,22.9,67.3,49.8,90.5
		c26.9,23.2,61.3,36,96.8,36H262c4.1,0,7.5-3.4,7.5-7.5c0-4.1-3.4-7.5-7.5-7.5H155.1c-31.9,0-62.8-11.5-87-32.3
		c-15.1-13-27-29.2-34.9-47.2h445.6c-7.9,18-19.8,34.2-34.9,47.2c-24.2,20.9-55.1,32.3-87,32.3H297c-4.1,0-7.5,3.4-7.5,7.5
		c0,4.1,3.4,7.5,7.5,7.5h59.9c35.5,0,69.9-12.8,96.8-36c26.9-23.2,44.6-55.3,49.8-90.5l8.3-55.9C512.6,244.9,511,239.4,507.4,235.2
		L507.4,235.2z M467.2,171.7c8.8,16.8,10.9,37.3,6.1,56.9h-37.5c3.2-15.6,2.7-31.5-1.3-46.3l5.6-10.6c2.7-5.1,7.8-8.2,13.6-8.2h0
		C459.5,163.5,464.6,166.6,467.2,171.7L467.2,171.7z M300.9,228.6l-2.2-27.7c-0.5-5.6,1.4-11,5.2-15.2c3.8-4.2,9.1-6.4,14.7-6.4
		h35.6c5.6,0,10.8,2.3,14.6,6.4c0,0,0,0,0,0c0,0,0,0,0,0c3.8,4.2,5.7,9.5,5.2,15.2l-2.2,27.7L300.9,228.6L300.9,228.6z M383.2,179.5
		l4.2-7.8c2.7-5.1,7.8-8.2,13.6-8.2h0c5.8,0,10.8,3.1,13.4,8.1c8.8,16.8,10.9,37.3,6.1,56.9h-33.4l2.1-26.5
		C389.8,194.1,387.7,186.1,383.2,179.5L383.2,179.5z M421.2,112.6c5.7,0,10.9,2.3,14.7,6.4c3.8,4.2,5.7,9.5,5.2,15.2l-1.4,17.7
		c-5.2,2.7-9.5,6.8-12.5,12.1c-5.3-9.5-15.3-15.5-26.3-15.5c0,0-0.1,0-0.1,0c-0.2,0-0.4,0-0.6,0c-2-15.1-13.1-27.4-27.7-31.2
		c3.5-3,8.1-4.7,13-4.7L421.2,112.6L421.2,112.6z M252.6,111.8c3.1,0,6.2,0.6,9,1.9c4.2,1.9,9.2,1.1,12.7-1.9
		c4.1-3.6,9.3-5.6,14.8-5.6s10.7,2,14.8,5.6c3.5,3,8.4,3.8,12.7,1.9c2.9-1.3,5.9-1.9,9-1.9c8.7,0,16.7,5.1,20.3,13
		c2.3,5,7.7,7.8,13.2,6.7c1.4-0.3,2.8-0.4,4.2-0.4c12,0,21.9,9.5,22.4,21.5c-4.8,2.8-8.9,6.9-11.6,12.1l-2.3,4.3
		c-5.3-3-11.3-4.7-17.5-4.7h-35.6c-9.7,0-19.1,4.1-25.7,11.3c-6.6,7.2-10,16.8-9.2,26.6l2.1,26.5h-30.2l27-78.7
		c1.5-4.3,1.1-9-1.1-13c-2.2-4-5.9-6.9-10.3-8l-35.7-9.1C239.8,114.8,246,111.8,252.6,111.8L252.6,111.8z M182.2,122
		c0.2-0.1,0.6-0.3,1-0.2l84.3,21.5c0.4,0.1,0.7,0.4,0.8,0.6s0.2,0.6,0.1,1l-28.6,83.6h-19.9c1.6-5.8,2.7-11.8,3.3-17.9
		c2.1-21.7-2.4-42.8-12.6-59.4c-7.6-12.4-17.8-21.3-29.4-25.9l0.4-2.5C181.8,122.4,182,122.1,182.2,122z M165.4,136.7
		c12.8,1.2,24.3,9.2,32.5,22.4c8.5,13.9,12.2,31.7,10.4,50.1c-0.6,6.7-2,13.1-4,19.3h-9.6c0.6-2.3,1-4.7,1.2-7.2
		c1.1-11.5-1.7-22.7-7.9-31.6c-6.5-9.3-15.8-15-26.3-16c-6-0.6-12,0.4-17.6,2.9c-4.4-8.8-9.8-16.5-16.1-23
		C138.8,141.6,152.2,135.4,165.4,136.7L165.4,136.7z M152.1,198c-0.6-2.5-1.4-5-2.2-7.4c3.3-1.6,6.8-2.2,10.4-1.9
		c6,0.6,11.5,4,15.4,9.6c4.2,6,6,13.7,5.3,21.6c-0.3,3-1,5.9-2,8.6h-23.8C155.7,218.5,154.7,208.2,152.1,198L152.1,198z M98,100.5
		c3.4-4.6,8.8-6.9,14.5-6.1c5.8,0.8,10.3,4.6,12.3,10.1l8.9,25.1c-6,3.6-11.7,8.3-16.8,14.1c-9.9-7.1-21-11.3-32.2-12
		C86.9,120.3,91.4,109.6,98,100.5z M41.1,225.9c-9.1-36.4,5-71.4,31.6-78.1c26.6-6.7,55.7,17.5,64.8,53.9c2.3,9,3.1,18.1,2.6,26.9
		h-8.6c-0.1-3.8-0.6-7.6-1.5-11.4c-5.9-23.6-27.5-38.5-48.2-33.3c-10.2,2.6-18.6,9.6-23.6,19.7c-3.7,7.6-5.2,16.2-4.4,25h-12
		C41.6,227.7,41.4,226.8,41.1,225.9L41.1,225.9z M69,228.6c-0.9-6.5,0-12.9,2.7-18.4c3-6.1,7.9-10.3,13.8-11.8
		c12.6-3.2,26.1,6.9,30,22.5c0.6,2.6,1,5.1,1.1,7.7H69z M497,248.2l-5,34H97.6c-4.1,0-7.5,3.4-7.5,7.5c0,4.1,3.4,7.5,7.5,7.5h392.1
		l-1,6.9c-1,6.5-2.4,12.9-4.3,19.1H27.6c-1.9-6.2-3.3-12.6-4.3-19.1l-1-6.9h40.3c4.1,0,7.5-3.4,7.5-7.5c0-4.1-3.4-7.5-7.5-7.5H20.1
		l-5-34c-0.2-1.6,0.5-2.7,0.9-3.2c0.5-0.5,1.4-1.4,3.1-1.4h17.3c0,0,0,0,0,0c0,0,0,0,0,0H493c1.6,0,2.6,0.9,3.1,1.4
		S497.2,246.6,497,248.2L497,248.2z"/>
</g>
</svg>
