<?xml version="1.0" encoding="utf-8"?>
<!-- Generator: Adobe Illustrator 27.7.0, SVG Export Plug-In . SVG Version: 6.00 Build 0)  -->
<svg version="1.1" id="Outline" xmlns="http://www.w3.org/2000/svg" xmlns:xlink="http://www.w3.org/1999/xlink" x="0px" y="0px"
	 viewBox="0 0 512 512" style="enable-background:new 0 0 512 512;" xml:space="preserve">
<style type="text/css">
	.st0{fill:#FFFFFF;}
</style>
<path class="st0" d="M240,146.1V224H120c-4.4,0-8,3.6-8,8v30.1l-15.2,30.3c-0.6,1.1-0.8,2.3-0.8,3.6v160c0,1.2,0.3,2.5,0.8,3.6
	l16,32c1.4,2.7,4.1,4.4,7.2,4.4h128c3,0,5.8-1.7,7.2-4.4l0.1-0.3c13.7,8.4,31.5,5.3,41.6-7.2c7.3,7.3,18.6,11.9,31.1,11.9
	s23.8-4.6,31.1-11.9c11.1,13.8,31.2,15.9,45,4.8c7.5-6.1,11.9-15.2,11.9-24.9c0-0.2,0-0.3,0-0.5L408,336.3l7.9-55.2
	c0.1-0.4,0.1-0.8,0.1-1.1h0V146.1c0-8.2-2.5-16.2-7.2-22.9L367.4,64h0.6c4.4,0,8-3.6,8-8V40c0-13.2-10.8-24-24-24h-48
	c-13.2,0-24,10.8-24,24v16c0,4.4,3.6,8,8,8h0.6l-41.4,59.1C242.5,129.9,240,137.9,240,146.1z M112,448V304h64.9
	c7.9,20.4,15.1,42,15.1,64c0,35.8-11,56.8-24.1,80H112z M194,304h14.9c7.9,20.4,15.1,42,15.1,64c0,35.8-11,56.8-24.1,80h-13.7
	c11.9-21.7,21.7-44.4,21.7-80C208,345.5,201.6,324.2,194,304z M243.1,480H124.9l-8-16h134.1L243.1,480z M384,480
	c-8.8,0-16-7.2-16-16c0-4.4-3.6-8-8-8s-8,3.6-8,8c0,8.7-11,16-24,16s-24-7.3-24-16c0-4.4-3.6-8-8-8s-8,3.6-8,8c0,8.8-7.2,16-16,16
	c-3.4,0-6.8-1.1-9.5-3.1l8.6-17.3c0.6-1.1,0.8-2.3,0.8-3.6V296c0-1.2-0.3-2.5-0.8-3.6l-2.2-4.4h129.8l-6.7,46.9
	c-0.1,0.5-0.1,1.1-0.1,1.6l8,127.7C399.9,473,392.7,480,384,480z M296,40c0-4.4,3.6-8,8-8h48c4.4,0,8,3.6,8,8v8h-64V40z M256,146.1
	c0-4.9,1.5-9.7,4.3-13.8L308.2,64h39.7l47.8,68.3c2.8,4,4.3,8.8,4.3,13.8V160H256V146.1z M256,232v-56h144v96H260.9l-4.9-9.9V232z
	 M256,448h-37.7c11.9-21.7,21.7-44.4,21.7-80c0-22.5-6.4-43.8-14-64h30V448z M116.9,288l8-16H200c4.4,0,8-3.6,8-8s-3.6-8-8-8h-72
	v-16h112v16h-8c-4.4,0-8,3.6-8,8s3.6,8,8,8h11.1l8,16H116.9z"/>
</svg>
