<?xml version="1.0" encoding="utf-8"?>
<!-- Generator: Adobe Illustrator 27.7.0, SVG Export Plug-In . SVG Version: 6.00 Build 0)  -->
<svg version="1.1" id="Layer_1" xmlns="http://www.w3.org/2000/svg" xmlns:xlink="http://www.w3.org/1999/xlink" x="0px" y="0px"
	 viewBox="0 0 512 512" style="enable-background:new 0 0 512 512;" xml:space="preserve">
<style type="text/css">
	.st0{fill:#FFFFFF;}
</style>
<path class="st0" d="M177.2,262.5c37.5-21.3,50.6-68.9,29.3-106.3s-68.9-50.6-106.3-29.3s-50.6,68.9-29.3,106.3
	c7,12.2,17.1,22.4,29.3,29.3C45.4,279.4,8.1,330,8,387.4c0,4.4,3.6,8,8,8h245.4c4.4,0,8-3.6,8-8C269.3,330,232,279.4,177.2,262.5
	L177.2,262.5z M76.7,194.7c0-34.2,27.8-62,62-62s62,27.8,62,62c0,34.2-27.8,62-62,62C104.5,256.6,76.7,228.9,76.7,194.7L76.7,194.7z
	 M24.3,379.4c4.3-60.1,54.2-106.6,114.4-106.7c60.2,0.1,110.1,46.6,114.4,106.7L24.3,379.4z M389.3,96.7c-3.1-3.1-3.1-8.2,0-11.3
	s8.2-3.1,11.3,0l13.1,13.1l31.2-35.8c2.8-3.4,7.9-3.8,11.3-1c3.4,2.8,3.8,7.9,1,11.3c-0.1,0.1-0.1,0.2-0.2,0.2l-36.8,42.2
	c-1.5,1.7-3.5,2.7-5.8,2.7h-0.3c-2.1,0-4.2-0.8-5.7-2.3L389.3,96.7z M389.3,263.6c-3.1-3.1-3.1-8.2,0-11.3s8.2-3.1,11.3,0l13.1,13.1
	l31.2-35.8c3-3.3,8-3.5,11.3-0.6c3.2,2.9,3.5,7.8,0.8,11.1l-36.8,42.2c-1.5,1.7-3.5,2.7-5.8,2.7h-0.3c-2.1,0-4.2-0.8-5.7-2.3
	L389.3,263.6z M389.3,430.5c-3-3.2-2.9-8.3,0.3-11.3c3.1-2.9,7.9-2.9,11,0l13.1,13.1l31.2-35.8c2.9-3.3,8-3.7,11.3-0.8
	c3.3,2.9,3.7,8,0.8,11.3l0,0l-36.8,42.2c-1.5,1.7-3.5,2.7-5.8,2.7h-0.3c-2.1,0-4.2-0.8-5.7-2.3L389.3,430.5z M298.6,264h43.7
	c4.4,44.6,44.1,77.1,88.7,72.7s77.1-44.1,72.7-88.7c-4.4-44.6-44.1-77.1-88.7-72.7c-38.5,3.8-68.9,34.2-72.7,72.7h-43.7V97.1h43.7
	c4.4,44.6,44.1,77.1,88.7,72.7c44.6-4.4,77.1-44.1,72.7-88.7C499.2,36.5,459.5,4,414.9,8.4c-38.5,3.8-68.9,34.2-72.7,72.7h-51.7
	c-4.4,0-8,3.6-8,8V248h-28.8c-4.4-12.4-18.1-18.9-30.5-14.5s-18.9,18.1-14.5,30.5s18.1,18.9,30.5,14.5c6.7-2.4,12.1-7.7,14.5-14.5
	h28.8v158.9c0,4.4,3.6,8,8,8h51.7c4.4,44.6,44.1,77.1,88.7,72.7s77.1-44.1,72.7-88.7c-4.4-44.6-44.1-77.1-88.7-72.7
	c-38.5,3.8-68.9,34.2-72.7,72.7h-43.7V264z M422.9,24c35.9,0,65.1,29.1,65.1,65.1s-29.1,65.1-65.1,65.1s-65.1-29.1-65.1-65.1
	c0,0,0,0,0,0C357.9,53.2,387,24,422.9,24L422.9,24z M422.9,357.8c35.9,0,65.1,29.1,65.1,65.1S458.9,488,422.9,488
	c-35.9,0-65.1-29.1-65.1-65.1C357.9,387,387,357.9,422.9,357.8L422.9,357.8z M422.9,190.9c35.9,0,65.1,29.1,65.1,65.1
	s-29.1,65.1-65.1,65.1s-65.1-29.1-65.1-65.1l0,0C357.9,220.1,387,191,422.9,190.9L422.9,190.9z M231.3,263.8c-4.3,0-7.8-3.5-7.8-7.9
	c0-4.3,3.5-7.8,7.8-7.8c4.3,0,7.8,3.5,7.8,7.8C239.2,260.3,235.6,263.8,231.3,263.8z"/>
</svg>
