<?xml version="1.0" encoding="utf-8"?>
<!-- Generator: Adobe Illustrator 27.7.0, SVG Export Plug-In . SVG Version: 6.00 Build 0)  -->
<svg version="1.1" id="Capa_1" xmlns="http://www.w3.org/2000/svg" xmlns:xlink="http://www.w3.org/1999/xlink" x="0px" y="0px"
	 viewBox="0 0 512 512" style="enable-background:new 0 0 512 512;" xml:space="preserve">
<style type="text/css">
	.st0{fill:#FFFFFF;}
</style>
<g id="_02-Job_Search">
	<path class="st0" d="M312,16c-101.6-0.1-183.9,82.2-184,183.8c0,40.2,13.2,79.4,37.5,111.4l-34.3,34.3c-9.3-4.9-20.7-3.3-28.1,4.1
		l-74.7,74.7c-16.4,16.4-16.4,42.9,0,59.3c16.4,16.4,42.9,16.4,59.3,0l74.7-74.7c7.4-7.5,9.1-18.9,4.1-28.1l34.3-34.3
		c80.9,61.4,196.3,45.6,257.7-35.3s45.6-196.3-35.3-257.7C391.3,29.1,352.2,16,312,16z M151,397.7l-74.7,74.7
		c-10.1,10.1-26.6,10.1-36.7,0s-10.1-26.6,0-36.7l74.7-74.7c3.1-3.1,8.2-3.1,11.3,0l25.4,25.4C154.1,389.5,154.1,394.5,151,397.7z
		 M156,368.7L143.3,356l32.5-32.5c4,4.4,8.3,8.7,12.7,12.7L156,368.7z M312,368c-92.8,0-168-75.2-168-168S219.2,32,312,32
		s168,75.2,168,168C479.9,292.7,404.7,367.9,312,368z M312,48c-83.9,0-152,68.1-152,152s68.1,152,152,152s152-68.1,152-152
		C463.9,116.1,395.9,48.1,312,48z M312,336c-75.1,0-136-60.9-136-136S236.9,64,312,64s136,60.9,136,136
		C447.9,275.1,387.1,335.9,312,336z M384,136h-32v-8c0-13.2-10.8-24-24-24h-32c-13.2,0-24,10.8-24,24v8h-32c-13.2,0-24,10.8-24,24
		v16c0,8.6,2.8,16.9,8,23.8V256c0,13.2,10.8,24,24,24h128c13.2,0,24-10.8,24-24v-56.2c5.2-6.8,8-15.2,8-23.8v-16
		C408,146.8,397.2,136,384,136z M288,128c0-4.4,3.6-8,8-8h32c4.4,0,8,3.6,8,8v8h-48V128z M232,160c0-4.4,3.6-8,8-8h144
		c4.4,0,8,3.6,8,8v16c0,13.2-10.8,24-24,24h-8v-8c0-4.4-3.6-8-8-8s-8,3.6-8,8v8h-64v-8c0-4.4-3.6-8-8-8s-8,3.6-8,8v8h-8
		c-13.2,0-24-10.8-24-24V160z M376,264H248c-4.4,0-8-3.6-8-8v-43.4c5,2.2,10.5,3.4,16,3.4h8v8c0,4.4,3.6,8,8,8s8-3.6,8-8v-8h64v8
		c0,4.4,3.6,8,8,8s8-3.6,8-8v-8h8c5.5,0,11-1.2,16-3.4V256C384,260.4,380.4,264,376,264z"/>
</g>
</svg>
