<?xml version="1.0" encoding="utf-8"?>
<!-- Generator: Adobe Illustrator 27.7.0, SVG Export Plug-In . SVG Version: 6.00 Build 0)  -->
<svg version="1.1" id="Capa_1" xmlns="http://www.w3.org/2000/svg" xmlns:xlink="http://www.w3.org/1999/xlink" x="0px" y="0px"
	 viewBox="0 0 511 511" style="enable-background:new 0 0 511 511;" xml:space="preserve">
<style type="text/css">
	.st0{fill:#FFFFFF;}
</style>
<path class="st0" d="M487.7,319l14.6-14.6c9.2-9.2,9.2-24.2,0-33.4c-4.5-4.5-10.4-6.9-16.7-6.9c-4.7,0-9.3,1.4-13.1,4l-3.1-10.3
	l15.8-15.8c9.2-9.2,9.2-24.2,0-33.4c-8.5-8.5-21.8-9.1-31.1-2l-18.8-63c7.5-7.2,14.7-14.2,21.4-21c19.5-19.5,35.3-40.1,44.6-58.1
	c15.7-30.4,9.1-46.6,0.8-54.9c-8.3-8.3-24.5-14.8-54.9,0.9c-18,9.3-38.6,25.1-58.1,44.6c-6.8,6.8-13.8,13.9-21,21.4l-63-18.8
	c7.1-9.2,6.5-22.6-2-31.1c-9.2-9.2-24.2-9.2-33.4,0l-15.8,15.8l-10.3-3.1c2.6-3.8,4-8.4,4-13.1c0-6.3-2.5-12.2-6.9-16.7
	c-9.2-9.2-24.2-9.2-33.4,0L193,24.3L118.5,2.1C115.8,1.3,112.9,2,111,4L91.8,23.2c-3.2,3.2-2.8,8.7,0.9,11.4l188,137.6
	c-42.4,47.8-83.2,95.6-112,129.8l-55.3-21.3c-2.8-1.1-5.9-0.4-8,1.7l-22.7,22.7c-2.9,2.9-2.9,7.7,0,10.7l113.6,113.6
	c2.9,2.9,7.8,2.9,10.7,0l22.7-22.7c2.1-2.1,2.8-5.3,1.7-8L210,343.4c34.2-28.8,82-69.6,129.8-112l14.9,20.4c2.7,3.6,8,4.1,11.3,1
	c2.7-2.6,3.1-6.9,0.9-9.9l-15.8-21.6c25-22.3,49.7-44.8,72.1-66l71,238.3l-9.8,9.8l-97.5-133.3c-2.5-3.4-7.2-4.1-10.5-1.6
	c-3.4,2.5-4.1,7.2-1.6,10.5l102.7,140.4c2.7,3.7,8.2,4.1,11.4,0.9L508,401c2-2,2.7-4.8,1.9-7.5L487.7,319z M280.7,37.4
	c3.3-3.3,8.8-3.3,12.1,0c3.3,3.3,3.3,8.7,0,12.1l-3.5,3.5l-18.6-5.5L280.7,37.4z M218.2,20.3c3.3-3.3,8.7-3.3,12.1,0
	c3.3,3.3,3.3,8.7,0,12.1l-2.3,2.3l-18.6-5.5L218.2,20.3z M108.7,27.6l9.8-9.8l238.3,71c-21.2,22.4-43.7,47.1-66,72.1L108.7,27.6z
	 M112.5,296.5l45.9,17.6c-11.5,13.7-20.3,24.3-25.5,30.6l-34.3-34.3L112.5,296.5z M143.5,355.4C169.8,323.8,308.6,157.2,400,65.8
	c18.1-18.1,37.9-33.4,54.3-41.9c12.3-6.4,28.7-12.1,37.3-3.6c8.5,8.5,2.8,25-3.6,37.3c-8.5,16.4-23.7,36.2-41.9,54.3
	c-91.4,91.4-258,230.3-289.7,256.5L143.5,355.4z M215.5,399.5l-13.9,13.9l-34.3-34.3c6.3-5.2,16.9-14,30.6-25.5L215.5,399.5z
	 M479.6,281.7c3.3-3.3,8.7-3.3,12.1,0s3.3,8.7,0,12.1l-8.9,8.9l-5.5-18.6L479.6,281.7z M462.5,219.2c3.3-3.3,8.7-3.3,12.1,0
	c3.3,3.3,3.3,8.8,0,12.1l-10.1,10.1l-5.5-18.6L462.5,219.2z"/>
<path class="st0" d="M452.2,434.9l-64.3,64.3c-2.7,2.7-2.9,7.3-0.4,10.2c2.8,3.3,8,3.5,11.1,0.4l64.3-64.3c2.9-2.9,2.9-7.7,0-10.7
	C459.9,431.9,455.1,431.9,452.2,434.9z"/>
<path class="st0" d="M430.7,413.4c2.9-2.9,2.9-7.7,0-10.7c-2.9-2.9-7.7-2.9-10.7,0l-40.2,40.2c-2.7,2.7-2.9,7.3-0.4,10.2
	c2.8,3.3,8,3.5,11.1,0.4L430.7,413.4z"/>
<path class="st0" d="M406.6,373.2c2.9-2.9,2.9-7.7,0-10.7c-2.9-2.9-7.7-2.9-10.7,0l-28.1,28.1c-2.7,2.7-2.9,7.3-0.4,10.2
	c2.8,3.3,8,3.5,11.1,0.4L406.6,373.2z"/>
<path class="st0" d="M77.1,53.2c-2.9-2.9-7.7-2.9-10.7,0L2.2,117.4c-2.9,2.9-2.9,7.7,0,10.7c2.9,2.9,7.8,2.9,10.7,0l64.3-64.3
	C80.1,60.9,80.1,56.1,77.1,53.2z"/>
<path class="st0" d="M109.3,85.3c-2.9-2.9-7.7-2.9-10.7,0l-40.2,40.2c-2.7,2.7-2.9,7.3-0.4,10.2c2.8,3.3,8,3.5,11.1,0.4L109.3,96
	C112.2,93,112.2,88.2,109.3,85.3z"/>
<path class="st0" d="M110.7,148.2c2.9,2.9,7.8,2.9,10.7,0l28.1-28.1c2.9-2.9,2.9-7.7,0-10.7c-2.9-2.9-7.7-2.9-10.7,0l-28.1,28.1
	C107.7,140.5,107.7,145.2,110.7,148.2z"/>
</svg>
